<svg xmlns="http://www.w3.org/2000/svg" xmlns:xlink="http://www.w3.org/1999/xlink" width="500" zoomAndPan="magnify" viewBox="0 0 375 374.999991" height="500" preserveAspectRatio="xMidYMid meet" version="1.0"><defs><g/><clipPath id="id1"><path d="M 12 76 L 125 76 L 125 274 L 12 274 Z M 12 76 " clip-rule="nonzero"/></clipPath><clipPath id="id2"><path d="M 11.246094 284.351562 L 4.386719 71.460938 L 125.074219 67.574219 L 131.933594 280.464844 Z M 11.246094 284.351562 " clip-rule="nonzero"/></clipPath><clipPath id="id3"><path d="M 11.246094 284.351562 L 4.386719 71.460938 L 125.074219 67.574219 L 131.933594 280.464844 Z M 11.246094 284.351562 " clip-rule="nonzero"/></clipPath><clipPath id="id4"><path d="M 11.246094 284.351562 L 4.386719 71.460938 L 125.074219 67.574219 L 131.933594 280.464844 Z M 11.246094 284.351562 " clip-rule="nonzero"/></clipPath><clipPath id="id5"><path d="M 39 75 L 126 75 L 126 274 L 39 274 Z M 39 75 " clip-rule="nonzero"/></clipPath><clipPath id="id6"><path d="M 11.246094 284.351562 L 4.386719 71.460938 L 125.074219 67.574219 L 131.933594 280.464844 Z M 11.246094 284.351562 " clip-rule="nonzero"/></clipPath><clipPath id="id7"><path d="M 11.246094 284.351562 L 4.386719 71.460938 L 125.074219 67.574219 L 131.933594 280.464844 Z M 11.246094 284.351562 " clip-rule="nonzero"/></clipPath><clipPath id="id8"><path d="M 11.246094 284.351562 L 4.386719 71.460938 L 125.074219 67.574219 L 131.933594 280.464844 Z M 11.246094 284.351562 " clip-rule="nonzero"/></clipPath><clipPath id="id9"><path d="M 54 99 L 68 99 L 68 114 L 54 114 Z M 54 99 " clip-rule="nonzero"/></clipPath><clipPath id="id10"><path d="M 11.246094 284.351562 L 4.386719 71.460938 L 125.074219 67.574219 L 131.933594 280.464844 Z M 11.246094 284.351562 " clip-rule="nonzero"/></clipPath><clipPath id="id11"><path d="M 11.246094 284.351562 L 4.386719 71.460938 L 125.074219 67.574219 L 131.933594 280.464844 Z M 11.246094 284.351562 " clip-rule="nonzero"/></clipPath><clipPath id="id12"><path d="M 11.246094 284.351562 L 4.386719 71.460938 L 125.074219 67.574219 L 131.933594 280.464844 Z M 11.246094 284.351562 " clip-rule="nonzero"/></clipPath><clipPath id="id13"><path d="M 54 129 L 69 129 L 69 144 L 54 144 Z M 54 129 " clip-rule="nonzero"/></clipPath><clipPath id="id14"><path d="M 11.246094 284.351562 L 4.386719 71.460938 L 125.074219 67.574219 L 131.933594 280.464844 Z M 11.246094 284.351562 " clip-rule="nonzero"/></clipPath><clipPath id="id15"><path d="M 11.246094 284.351562 L 4.386719 71.460938 L 125.074219 67.574219 L 131.933594 280.464844 Z M 11.246094 284.351562 " clip-rule="nonzero"/></clipPath><clipPath id="id16"><path d="M 11.246094 284.351562 L 4.386719 71.460938 L 125.074219 67.574219 L 131.933594 280.464844 Z M 11.246094 284.351562 " clip-rule="nonzero"/></clipPath><clipPath id="id17"><path d="M 69 114 L 84 114 L 84 129 L 69 129 Z M 69 114 " clip-rule="nonzero"/></clipPath><clipPath id="id18"><path d="M 11.246094 284.351562 L 4.386719 71.460938 L 125.074219 67.574219 L 131.933594 280.464844 Z M 11.246094 284.351562 " clip-rule="nonzero"/></clipPath><clipPath id="id19"><path d="M 11.246094 284.351562 L 4.386719 71.460938 L 125.074219 67.574219 L 131.933594 280.464844 Z M 11.246094 284.351562 " clip-rule="nonzero"/></clipPath><clipPath id="id20"><path d="M 11.246094 284.351562 L 4.386719 71.460938 L 125.074219 67.574219 L 131.933594 280.464844 Z M 11.246094 284.351562 " clip-rule="nonzero"/></clipPath><clipPath id="id21"><path d="M 6 69 L 131 69 L 131 281 L 6 281 Z M 6 69 " clip-rule="nonzero"/></clipPath><clipPath id="id22"><path d="M 11.246094 284.351562 L 4.386719 71.460938 L 125.074219 67.574219 L 131.933594 280.464844 Z M 11.246094 284.351562 " clip-rule="nonzero"/></clipPath><clipPath id="id23"><path d="M 11.246094 284.351562 L 4.386719 71.460938 L 125.074219 67.574219 L 131.933594 280.464844 Z M 11.246094 284.351562 " clip-rule="nonzero"/></clipPath><clipPath id="id24"><path d="M 11.246094 284.351562 L 4.386719 71.460938 L 125.074219 67.574219 L 131.933594 280.464844 Z M 11.246094 284.351562 " clip-rule="nonzero"/></clipPath><clipPath id="id25"><path d="M 14 104 L 108 104 L 108 272 L 14 272 Z M 14 104 " clip-rule="nonzero"/></clipPath><clipPath id="id26"><path d="M 11.246094 284.351562 L 4.386719 71.460938 L 125.074219 67.574219 L 131.933594 280.464844 Z M 11.246094 284.351562 " clip-rule="nonzero"/></clipPath><clipPath id="id27"><path d="M 11.246094 284.351562 L 4.386719 71.460938 L 125.074219 67.574219 L 131.933594 280.464844 Z M 11.246094 284.351562 " clip-rule="nonzero"/></clipPath><clipPath id="id28"><path d="M 11.246094 284.351562 L 4.386719 71.460938 L 125.074219 67.574219 L 131.933594 280.464844 Z M 11.246094 284.351562 " clip-rule="nonzero"/></clipPath></defs><g fill="#00c2cb" fill-opacity="1"><g transform="translate(113.648167, 163.40422)"><g><path d="M 15.5 -27.78125 L 17.875 -27.78125 C 19.9375 -27.65625 21.945312 -27.226562 23.90625 -26.5 C 26.820312 -25.445312 29.132812 -23.539062 30.84375 -20.78125 C 32.226562 -18.289062 32.554688 -16.078125 31.828125 -14.140625 C 31.773438 -13.816406 31.882812 -13.441406 32.15625 -13.015625 C 32.414062 -12.429688 32.59375 -11.925781 32.6875 -11.5 C 32.863281 -10.914062 32.898438 -10.023438 32.796875 -8.828125 C 32.648438 -6.816406 32.007812 -4.804688 30.875 -2.796875 C 29.375 -0.398438 27.476562 1.332031 25.1875 2.40625 C 23.195312 3.394531 21.007812 3.953125 18.625 4.078125 L 15.53125 4.078125 C 12.34375 3.898438 9.328125 2.765625 6.484375 0.671875 C 5.398438 -0.179688 4.507812 -1.132812 3.8125 -2.1875 C 1.820312 -5.351562 0.929688 -8.820312 1.140625 -12.59375 C 1.304688 -15.226562 1.992188 -17.742188 3.203125 -20.140625 C 4.003906 -21.617188 5.363281 -23.175781 7.28125 -24.8125 C 9.863281 -26.625 12.601562 -27.613281 15.5 -27.78125 Z M 15.71875 -26.171875 C 13.988281 -26.015625 12.316406 -25.570312 10.703125 -24.84375 C 8.347656 -23.71875 6.441406 -22.046875 4.984375 -19.828125 C 2.941406 -15.910156 2.335938 -12.015625 3.171875 -8.140625 C 3.347656 -7.035156 3.648438 -6.03125 4.078125 -5.125 C 5.109375 -2.84375 6.738281 -1.046875 8.96875 0.265625 C 11.707031 1.867188 14.660156 2.582031 17.828125 2.40625 C 20.066406 2.382812 22.101562 1.972656 23.9375 1.171875 C 26.425781 0.0859375 28.351562 -1.671875 29.71875 -4.109375 C 30.769531 -6.117188 31.257812 -8.226562 31.1875 -10.4375 C 31.101562 -11 30.976562 -11.503906 30.8125 -11.953125 C 30.6875 -12.222656 30.535156 -12.347656 30.359375 -12.328125 C 30.179688 -12.328125 29.878906 -12.140625 29.453125 -11.765625 C 27.816406 -10.804688 26.128906 -10.441406 24.390625 -10.671875 C 23.585938 -10.847656 22.910156 -11.425781 22.359375 -12.40625 C 22.085938 -12.90625 21.847656 -13.40625 21.640625 -13.90625 C 21.566406 -14.1875 21.457031 -14.378906 21.3125 -14.484375 C 21.257812 -14.503906 20.929688 -14.515625 20.328125 -14.515625 L 17.53125 -14.515625 L 16.78125 -14.328125 C 16.425781 -14.253906 16.0625 -13.976562 15.6875 -13.5 C 15.4375 -13.195312 15.273438 -12.691406 15.203125 -11.984375 C 15.078125 -10.679688 15.414062 -9.691406 16.21875 -9.015625 C 16.570312 -8.804688 17.070312 -8.640625 17.71875 -8.515625 L 21.375 -8.515625 C 22.132812 -8.515625 22.640625 -8.46875 22.890625 -8.375 C 23.285156 -8.09375 23.398438 -7.726562 23.234375 -7.28125 C 23.023438 -6.695312 22.644531 -6.226562 22.09375 -5.875 C 21.570312 -5.550781 21.070312 -5.363281 20.59375 -5.3125 C 17.820312 -4.8125 15.554688 -4.960938 13.796875 -5.765625 C 13.316406 -5.992188 12.828125 -6.410156 12.328125 -7.015625 C 11.546875 -8.015625 11.109375 -9.019531 11.015625 -10.03125 C 10.710938 -12.34375 11.035156 -14.476562 11.984375 -16.4375 C 13.273438 -18.195312 14.785156 -19.101562 16.515625 -19.15625 C 17.796875 -19.28125 18.960938 -19.078125 20.015625 -18.546875 C 21.097656 -17.941406 21.878906 -17.035156 22.359375 -15.828125 C 22.734375 -14.703125 23.1875 -13.695312 23.71875 -12.8125 C 24.21875 -12.0625 24.929688 -11.75 25.859375 -11.875 C 26.941406 -12.03125 27.953125 -12.394531 28.890625 -12.96875 C 29.460938 -13.320312 29.863281 -13.773438 30.09375 -14.328125 C 30.59375 -15.304688 30.664062 -16.460938 30.3125 -17.796875 C 29.757812 -20.035156 28.210938 -22.019531 25.671875 -23.75 C 22.984375 -25.4375 19.664062 -26.242188 15.71875 -26.171875 Z M 19.71875 -16.78125 C 18.363281 -17.582031 16.941406 -17.734375 15.453125 -17.234375 C 14.773438 -17.003906 14.132812 -16.523438 13.53125 -15.796875 C 12.53125 -13.585938 12.304688 -11.398438 12.859375 -9.234375 C 13.140625 -8.484375 13.742188 -7.804688 14.671875 -7.203125 C 16.003906 -6.703125 17.488281 -6.550781 19.125 -6.75 C 19.71875 -6.851562 19.738281 -6.90625 19.1875 -6.90625 L 17.421875 -6.90625 C 16.765625 -7 16.257812 -7.125 15.90625 -7.28125 C 15.351562 -7.476562 14.863281 -7.851562 14.4375 -8.40625 C 13.457031 -9.863281 13.269531 -11.546875 13.875 -13.453125 C 14.375 -14.742188 15.164062 -15.585938 16.25 -15.984375 C 16.957031 -16.210938 17.9375 -16.289062 19.1875 -16.21875 C 19.875 -16.21875 20.050781 -16.40625 19.71875 -16.78125 Z M 19.71875 -16.78125 "/></g></g></g><g fill="#00c2cb" fill-opacity="1"><g transform="translate(155.203754, 163.40422)"><g><path d="M 11.34375 -26.6875 C 13.226562 -27.769531 15.128906 -28.085938 17.046875 -27.640625 C 18.328125 -27.390625 19.457031 -26.695312 20.4375 -25.5625 C 20.8125 -25.132812 21.148438 -24.632812 21.453125 -24.0625 C 24.492188 -17.019531 27.507812 -9.976562 30.5 -2.9375 C 31.28125 -1.226562 31.21875 0.253906 30.3125 1.515625 C 29.6875 2.335938 29.097656 2.875 28.546875 3.125 C 26.378906 4.226562 24.21875 4.378906 22.0625 3.578125 C 21.53125 3.359375 21.023438 2.984375 20.546875 2.453125 C 20.148438 1.921875 19.757812 1.289062 19.375 0.5625 C 19.28125 0.414062 19.144531 0.316406 18.96875 0.265625 L 11.953125 0.265625 C 11.347656 0.210938 10.945312 0.25 10.75 0.375 C 10.695312 0.425781 10.609375 0.578125 10.484375 0.828125 C 10.179688 1.710938 9.664062 2.453125 8.9375 3.046875 C 7.050781 4.335938 4.875 4.46875 2.40625 3.4375 C 0.570312 2.53125 -0.378906 1.195312 -0.453125 -0.5625 C -0.398438 -1.488281 -0.175781 -2.492188 0.21875 -3.578125 C 2.882812 -9.867188 5.5625 -16.15625 8.25 -22.4375 C 8.425781 -22.9375 8.628906 -23.4375 8.859375 -23.9375 C 9.410156 -25.039062 10.238281 -25.957031 11.34375 -26.6875 Z M 15 -26.171875 C 13.570312 -26.046875 12.378906 -25.566406 11.421875 -24.734375 C 10.847656 -24.078125 10.519531 -23.570312 10.4375 -23.21875 C 7.226562 -15.832031 4.210938 -8.796875 1.390625 -2.109375 C 0.691406 -0.398438 1.3125 0.953125 3.25 1.953125 C 4.53125 2.429688 5.734375 2.535156 6.859375 2.265625 C 8.242188 1.765625 9.007812 0.867188 9.15625 -0.421875 C 9.15625 -0.566406 8.878906 -0.929688 8.328125 -1.515625 C 7.421875 -2.890625 7.144531 -4.507812 7.5 -6.375 C 7.625 -7.476562 8.28125 -8.394531 9.46875 -9.125 C 10.144531 -9.375 10.796875 -9.523438 11.421875 -9.578125 C 12.023438 -9.578125 12.363281 -9.601562 12.4375 -9.65625 C 12.71875 -9.800781 12.882812 -9.988281 12.9375 -10.21875 C 13.082031 -10.769531 13.457031 -11.773438 14.0625 -13.234375 C 14.289062 -13.710938 14.378906 -14.085938 14.328125 -14.359375 C 14.253906 -14.742188 14.078125 -15.25 13.796875 -15.875 C 13.523438 -16.570312 13.347656 -17.070312 13.265625 -17.375 C 13.171875 -17.632812 13.234375 -17.863281 13.453125 -18.0625 C 13.878906 -18.289062 14.195312 -18.101562 14.40625 -17.5 C 15.332031 -14.976562 16.285156 -12.460938 17.265625 -9.953125 C 17.546875 -9.628906 18.140625 -9.515625 19.046875 -9.609375 C 21.023438 -9.460938 22.242188 -8.484375 22.703125 -6.671875 C 23.128906 -5.140625 23.039062 -3.617188 22.4375 -2.109375 C 22.207031 -1.628906 21.765625 -1.164062 21.109375 -0.71875 C 20.910156 -0.519531 20.875 -0.269531 21 0.03125 C 21.550781 1.394531 22.367188 2.140625 23.453125 2.265625 C 24.984375 2.640625 26.503906 2.375 28.015625 1.46875 C 29.171875 0.613281 29.585938 -0.351562 29.265625 -1.4375 C 29.085938 -2.238281 28.707031 -3.242188 28.125 -4.453125 C 25.488281 -10.484375 22.890625 -16.515625 20.328125 -22.546875 C 19.242188 -25.085938 17.46875 -26.296875 15 -26.171875 Z M 15.265625 -10.59375 C 15.140625 -10.945312 15.003906 -10.945312 14.859375 -10.59375 C 14.753906 -10.269531 14.726562 -10.082031 14.78125 -10.03125 C 15.332031 -9.90625 15.492188 -10.09375 15.265625 -10.59375 Z M 11.15625 -8.296875 C 9.875 -8.097656 9.070312 -7.394531 8.75 -6.1875 C 8.519531 -5.601562 8.503906 -4.769531 8.703125 -3.6875 C 8.859375 -2.707031 9.4375 -2.003906 10.4375 -1.578125 C 10.664062 -1.535156 10.957031 -1.472656 11.3125 -1.390625 L 19.1875 -1.390625 C 20.34375 -1.472656 21.132812 -2.175781 21.5625 -3.5 C 21.84375 -4.40625 21.804688 -5.410156 21.453125 -6.515625 C 21.128906 -7.503906 20.414062 -8.097656 19.3125 -8.296875 Z M 11.15625 -8.296875 "/></g></g></g><g fill="#00c2cb" fill-opacity="1"><g transform="translate(193.366494, 163.40422)"><g><path d="M 7.390625 -27.71875 C 8.972656 -28.039062 10.695312 -27.710938 12.5625 -26.734375 C 13.84375 -25.898438 14.734375 -24.929688 15.234375 -23.828125 C 15.628906 -22.828125 16.003906 -21.820312 16.359375 -20.8125 L 18.46875 -14.9375 C 18.726562 -14.332031 18.992188 -14.332031 19.265625 -14.9375 C 20.597656 -17.894531 21.894531 -20.859375 23.15625 -23.828125 C 23.425781 -24.484375 23.738281 -24.988281 24.09375 -25.34375 C 24.875 -26.269531 25.867188 -26.972656 27.078125 -27.453125 C 29.210938 -28.128906 31.222656 -27.890625 33.109375 -26.734375 C 34.316406 -25.929688 35.054688 -24.988281 35.328125 -23.90625 C 35.484375 -23.601562 35.625 -23.0625 35.75 -22.28125 L 35.75 0.078125 C 35.625 1.765625 34.628906 3.097656 32.765625 4.078125 C 31.960938 4.398438 31.019531 4.523438 29.9375 4.453125 C 28.832031 4.347656 27.828125 3.992188 26.921875 3.390625 C 25.835938 2.429688 25.25 1.375 25.15625 0.21875 L 25.15625 -1.125 C 25.15625 -1.78125 25.015625 -1.769531 24.734375 -1.09375 C 24.503906 -0.644531 24.316406 -0.207031 24.171875 0.21875 C 23.796875 1.207031 23.050781 2.113281 21.9375 2.9375 C 20.832031 3.738281 19.628906 4.101562 18.328125 4.03125 C 17.097656 3.976562 15.835938 3.375 14.546875 2.21875 C 13.816406 1.488281 13.328125 0.660156 13.078125 -0.265625 C 12.804688 -0.890625 12.65625 -0.890625 12.625 -0.265625 C 12.550781 0.785156 12.265625 1.691406 11.765625 2.453125 C 11.140625 3.304688 10.421875 3.859375 9.609375 4.109375 C 8.410156 4.554688 7.15625 4.644531 5.84375 4.375 C 4.9375 4.269531 4.054688 3.84375 3.203125 3.09375 C 2.898438 2.8125 2.703125 2.570312 2.609375 2.375 C 2.203125 1.570312 1.960938 0.816406 1.890625 0.109375 L 1.890625 -21.828125 C 1.984375 -22.910156 2.347656 -23.914062 2.984375 -24.84375 C 4.265625 -26.457031 5.734375 -27.414062 7.390625 -27.71875 Z M 8.40625 -26.171875 C 6.414062 -25.992188 4.910156 -24.925781 3.890625 -22.96875 C 3.734375 -22.632812 3.617188 -22.207031 3.546875 -21.6875 L 3.546875 0 C 3.597656 0.53125 3.785156 1.035156 4.109375 1.515625 C 4.460938 2.015625 4.953125 2.363281 5.578125 2.5625 C 6.890625 3.019531 8.171875 2.957031 9.421875 2.375 C 10.023438 2 10.453125 1.535156 10.703125 0.984375 C 10.804688 0.648438 10.882812 0.3125 10.9375 -0.03125 L 10.9375 -6.21875 C 10.8125 -6.800781 10.421875 -7.804688 9.765625 -9.234375 C 9.035156 -10.992188 8.332031 -12.753906 7.65625 -14.515625 C 7.476562 -14.890625 7.414062 -15.164062 7.46875 -15.34375 C 7.5625 -15.664062 7.722656 -15.828125 7.953125 -15.828125 C 8.304688 -15.878906 8.609375 -15.601562 8.859375 -15 C 10.671875 -10.40625 12.734375 -5.378906 15.046875 0.078125 C 15.796875 1.328125 16.925781 2.09375 18.4375 2.375 C 19.664062 2.476562 20.796875 1.960938 21.828125 0.828125 C 22.234375 0.421875 22.535156 -0.078125 22.734375 -0.671875 C 23.566406 -2.679688 24.410156 -4.695312 25.265625 -6.71875 C 25.390625 -6.96875 25.476562 -7.226562 25.53125 -7.5 L 25.53125 -14.4375 C 25.445312 -15.164062 25.519531 -15.695312 25.75 -16.03125 C 25.976562 -16.226562 26.207031 -16.265625 26.4375 -16.140625 C 26.6875 -16.015625 26.8125 -15.835938 26.8125 -15.609375 L 26.8125 0.109375 C 26.988281 1.085938 27.453125 1.804688 28.203125 2.265625 C 30.066406 2.992188 31.640625 2.941406 32.921875 2.109375 C 33.617188 1.484375 34.003906 0.78125 34.078125 0 L 34.078125 -22.28125 C 33.910156 -23.507812 33.269531 -24.539062 32.15625 -25.375 C 30.625 -26.351562 28.941406 -26.425781 27.109375 -25.59375 C 26.179688 -25.21875 25.390625 -24.441406 24.734375 -23.265625 C 23.171875 -19.742188 21.640625 -16.222656 20.140625 -12.703125 C 19.609375 -11.847656 19.492188 -11.09375 19.796875 -10.4375 L 21.234375 -6.671875 C 21.628906 -5.921875 21.585938 -5.394531 21.109375 -5.09375 C 20.585938 -4.914062 20.25 -5.175781 20.09375 -5.875 C 17.15625 -13.59375 15.109375 -19.125 13.953125 -22.46875 C 13.648438 -23.53125 12.90625 -24.472656 11.71875 -25.296875 C 10.695312 -25.953125 9.59375 -26.242188 8.40625 -26.171875 Z M 8.40625 -26.171875 "/></g></g></g><g fill="#00c2cb" fill-opacity="1"><g transform="translate(238.390325, 163.40422)"><g><path d="M 3.28125 -24.0625 C 4.664062 -25.664062 6.375 -26.582031 8.40625 -26.8125 L 26.3125 -26.8125 C 26.820312 -26.726562 27.328125 -26.578125 27.828125 -26.359375 C 29.003906 -25.804688 29.734375 -24.925781 30.015625 -23.71875 C 30.285156 -22.757812 30.347656 -21.78125 30.203125 -20.78125 C 29.878906 -18.488281 28.597656 -17.164062 26.359375 -16.8125 L 13.53125 -16.8125 C 12.925781 -16.8125 12.578125 -16.800781 12.484375 -16.78125 C 12.304688 -16.707031 12.304688 -16.582031 12.484375 -16.40625 C 12.535156 -16.375 12.859375 -16.359375 13.453125 -16.359375 L 23.671875 -16.359375 C 24.785156 -16.285156 25.753906 -15.722656 26.578125 -14.671875 C 27.515625 -13.085938 27.742188 -11.425781 27.265625 -9.6875 C 26.609375 -7.851562 25.363281 -6.8125 23.53125 -6.5625 L 13.453125 -6.5625 C 12.859375 -6.5625 12.519531 -6.546875 12.4375 -6.515625 C 12.289062 -6.367188 12.289062 -6.257812 12.4375 -6.1875 C 12.519531 -6.132812 12.859375 -6.109375 13.453125 -6.109375 L 26.3125 -6.109375 C 27.59375 -5.953125 28.585938 -5.445312 29.296875 -4.59375 C 30.398438 -2.832031 30.625 -0.925781 29.96875 1.125 C 29.820312 1.582031 29.546875 2.0625 29.140625 2.5625 C 28.460938 3.289062 27.519531 3.753906 26.3125 3.953125 L 8.828125 3.953125 C 7.640625 3.828125 6.632812 3.523438 5.8125 3.046875 C 4.695312 2.523438 3.703125 1.597656 2.828125 0.265625 C 2.328125 -0.691406 1.988281 -1.988281 1.8125 -3.625 L 1.8125 -19.53125 C 1.988281 -21.3125 2.476562 -22.820312 3.28125 -24.0625 Z M 8.671875 -25.109375 C 8.066406 -25.035156 7.453125 -24.882812 6.828125 -24.65625 C 5.035156 -23.957031 3.988281 -22.664062 3.6875 -20.78125 C 3.59375 -20.320312 3.519531 -19.851562 3.46875 -19.375 L 3.46875 -3.84375 L 3.65625 -2.34375 C 4.28125 0.269531 5.953125 1.804688 8.671875 2.265625 L 26.359375 2.265625 C 27.210938 2.160156 27.878906 1.644531 28.359375 0.71875 C 28.804688 -0.0820312 28.816406 -1.265625 28.390625 -2.828125 C 28.242188 -3.378906 27.84375 -3.816406 27.1875 -4.140625 C 26.851562 -4.296875 26.515625 -4.398438 26.171875 -4.453125 L 12.359375 -4.453125 C 11.609375 -4.453125 11.207031 -4.460938 11.15625 -4.484375 C 11.007812 -4.515625 10.875 -4.640625 10.75 -4.859375 C 10.695312 -4.984375 10.671875 -5.332031 10.671875 -5.90625 C 10.671875 -6.488281 10.65625 -6.820312 10.625 -6.90625 C 10.457031 -7.050781 10.242188 -7.132812 9.984375 -7.15625 C 8.878906 -7.382812 8.078125 -8.164062 7.578125 -9.5 C 7.171875 -10.507812 7.132812 -11.753906 7.46875 -13.234375 C 7.914062 -14.816406 8.921875 -15.734375 10.484375 -15.984375 C 10.679688 -16.179688 10.742188 -16.546875 10.671875 -17.078125 C 10.617188 -17.609375 10.671875 -17.988281 10.828125 -18.21875 C 11.128906 -18.488281 11.65625 -18.570312 12.40625 -18.46875 L 26.28125 -18.46875 C 27.113281 -18.570312 27.789062 -19.085938 28.3125 -20.015625 C 28.71875 -20.992188 28.769531 -22.078125 28.46875 -23.265625 C 28.144531 -24.316406 27.390625 -24.929688 26.203125 -25.109375 Z M 11.046875 -14.75 L 10.109375 -14.515625 C 9.628906 -14.316406 9.1875 -13.890625 8.78125 -13.234375 C 8.507812 -12.703125 8.410156 -12.023438 8.484375 -11.203125 C 8.554688 -10.648438 8.671875 -10.144531 8.828125 -9.6875 C 9.171875 -8.9375 9.875 -8.457031 10.9375 -8.25 L 23.53125 -8.25 C 24.5625 -8.53125 25.210938 -9.046875 25.484375 -9.796875 C 25.910156 -10.734375 25.9375 -11.828125 25.5625 -13.078125 C 25.363281 -13.660156 24.972656 -14.128906 24.390625 -14.484375 C 24.085938 -14.578125 23.785156 -14.664062 23.484375 -14.75 Z M 11.046875 -14.75 "/></g></g></g><g fill="#00c2cb" fill-opacity="1"><g transform="translate(278.060997, 163.40422)"><g><path d="M 5.6875 -26.015625 C 6.394531 -26.390625 7.238281 -26.65625 8.21875 -26.8125 L 20.09375 -26.8125 C 21.019531 -26.726562 22.023438 -26.523438 23.109375 -26.203125 C 25.546875 -25.453125 27.457031 -23.859375 28.84375 -21.421875 C 30.195312 -18.253906 30.296875 -15.125 29.140625 -12.03125 C 28.410156 -10.113281 27.082031 -8.601562 25.15625 -7.5 C 24.550781 -7.195312 24.25 -7.019531 24.25 -6.96875 C 24.625 -6.539062 25.390625 -6.21875 26.546875 -6 C 27.222656 -5.914062 27.976562 -5.660156 28.8125 -5.234375 C 29.363281 -4.859375 29.765625 -4.394531 30.015625 -3.84375 C 30.765625 -2.414062 30.878906 -0.757812 30.359375 1.125 C 30.078125 2.207031 29.347656 3.148438 28.171875 3.953125 C 27.015625 4.503906 26.132812 4.734375 25.53125 4.640625 C 23.1875 4.390625 21.175781 3.757812 19.5 2.75 C 16.707031 1.113281 14.804688 -1.171875 13.796875 -4.109375 C 13.703125 -4.335938 13.585938 -4.5625 13.453125 -4.78125 C 12.898438 -5.34375 12.625 -5.296875 12.625 -4.640625 L 12.625 0.21875 C 12.476562 1.300781 12.078125 2.222656 11.421875 2.984375 C 10.941406 3.535156 10.398438 3.921875 9.796875 4.140625 C 7.179688 5.023438 4.957031 4.6875 3.125 3.125 C 2.476562 2.5 2.039062 1.507812 1.8125 0.15625 L 1.8125 -20.625 C 1.90625 -21.601562 2.296875 -22.609375 2.984375 -23.640625 C 3.710938 -24.671875 4.613281 -25.460938 5.6875 -26.015625 Z M 8.453125 -25.109375 C 7.847656 -25.054688 7.21875 -24.878906 6.5625 -24.578125 C 5.457031 -24.078125 4.585938 -23.222656 3.953125 -22.015625 C 3.734375 -21.515625 3.570312 -20.972656 3.46875 -20.390625 L 3.46875 -0.03125 C 3.664062 0.894531 3.914062 1.519531 4.21875 1.84375 C 4.394531 2.070312 4.648438 2.257812 4.984375 2.40625 C 6.234375 2.9375 7.410156 3.066406 8.515625 2.796875 C 10.078125 2.316406 10.910156 1.375 11.015625 -0.03125 L 11.015625 -5.046875 C 11.015625 -5.648438 11 -5.992188 10.96875 -6.078125 C 10.894531 -6.222656 10.695312 -6.347656 10.375 -6.453125 C 9.007812 -6.953125 8.238281 -7.804688 8.0625 -9.015625 C 7.71875 -10.648438 7.742188 -12.109375 8.140625 -13.390625 C 8.640625 -14.515625 9.382812 -15.164062 10.375 -15.34375 C 10.644531 -15.289062 10.84375 -15.390625 10.96875 -15.640625 C 11 -15.742188 11.015625 -16.097656 11.015625 -16.703125 L 11.015625 -17.90625 C 11.054688 -18.15625 11.207031 -18.34375 11.46875 -18.46875 C 11.5625 -18.5 11.988281 -18.515625 12.75 -18.515625 L 18.921875 -18.515625 C 19.472656 -18.441406 19.976562 -18.140625 20.4375 -17.609375 C 21.21875 -16.453125 21.054688 -15.445312 19.953125 -14.59375 C 19.648438 -14.394531 19.304688 -14.269531 18.921875 -14.21875 L 11.34375 -14.21875 L 10.59375 -14.03125 C 10.019531 -13.820312 9.617188 -13.40625 9.390625 -12.78125 C 8.929688 -11.320312 8.984375 -9.960938 9.546875 -8.703125 C 9.921875 -8.054688 10.367188 -7.707031 10.890625 -7.65625 C 11.398438 -7.550781 11.90625 -7.472656 12.40625 -7.421875 C 13.257812 -7.328125 13.988281 -6.878906 14.59375 -6.078125 C 14.863281 -5.691406 15.128906 -5.1875 15.390625 -4.5625 C 15.984375 -2.5 17.503906 -0.625 19.953125 1.0625 C 21.554688 2.039062 23.3125 2.664062 25.21875 2.9375 C 26.070312 3.09375 26.941406 2.832031 27.828125 2.15625 C 28.753906 1.09375 29.144531 -0.238281 29 -1.84375 C 28.820312 -3.125 28.117188 -3.914062 26.890625 -4.21875 C 26.179688 -4.34375 25.675781 -4.457031 25.375 -4.5625 C 23.644531 -5.09375 22.375 -6.0625 21.5625 -7.46875 C 21.34375 -7.96875 21.09375 -8.46875 20.8125 -8.96875 C 20.363281 -9.78125 19.710938 -10.320312 18.859375 -10.59375 C 18.148438 -10.769531 17.742188 -11.046875 17.640625 -11.421875 C 17.585938 -11.597656 17.675781 -11.773438 17.90625 -11.953125 C 18.03125 -12.054688 18.507812 -12.019531 19.34375 -11.84375 C 20.476562 -11.414062 21.382812 -10.535156 22.0625 -9.203125 C 22.363281 -8.617188 22.828125 -8.414062 23.453125 -8.59375 C 24.835938 -9.050781 25.984375 -9.929688 26.890625 -11.234375 C 28.171875 -13.398438 28.609375 -15.578125 28.203125 -17.765625 C 28.003906 -18.992188 27.691406 -20 27.265625 -20.78125 C 25.753906 -23.164062 23.816406 -24.546875 21.453125 -24.921875 C 20.953125 -24.992188 20.425781 -25.054688 19.875 -25.109375 Z M 19.078125 -16.671875 C 18.796875 -16.796875 18.441406 -16.859375 18.015625 -16.859375 L 13.84375 -16.859375 C 13.238281 -16.859375 12.894531 -16.84375 12.8125 -16.8125 C 12.6875 -16.71875 12.625 -16.566406 12.625 -16.359375 C 12.625 -16.160156 12.726562 -16.007812 12.9375 -15.90625 C 12.988281 -15.882812 13.3125 -15.875 13.90625 -15.875 L 17.875 -15.875 C 18.476562 -15.875 18.84375 -15.898438 18.96875 -15.953125 C 19.320312 -16.097656 19.359375 -16.335938 19.078125 -16.671875 Z M 19.078125 -16.671875 "/></g></g></g><g fill="#00c2cb" fill-opacity="1"><g transform="translate(318.033255, 163.40422)"><g><path d="M 3.84375 -27.484375 C 5.675781 -28.160156 7.488281 -27.921875 9.28125 -26.765625 C 9.832031 -26.367188 10.296875 -25.914062 10.671875 -25.40625 C 11.273438 -24.457031 11.5 -23.414062 11.34375 -22.28125 C 10.988281 -20.144531 10.109375 -18.125 8.703125 -16.21875 C 7.648438 -15.03125 6.535156 -14.703125 5.359375 -15.234375 C 4.203125 -15.890625 3.519531 -16.78125 3.3125 -17.90625 C 3.3125 -18.40625 3.300781 -18.679688 3.28125 -18.734375 C 3.25 -18.890625 3.0625 -19.09375 2.71875 -19.34375 C 2.164062 -19.789062 1.738281 -20.269531 1.4375 -20.78125 C 0.957031 -21.8125 0.816406 -22.890625 1.015625 -24.015625 C 1.140625 -24.867188 1.492188 -25.632812 2.078125 -26.3125 C 2.472656 -26.894531 3.0625 -27.285156 3.84375 -27.484375 Z M 5.046875 -26.125 C 3.109375 -25.769531 2.253906 -24.523438 2.484375 -22.390625 C 2.535156 -21.921875 2.773438 -21.472656 3.203125 -21.046875 C 3.804688 -20.609375 4.132812 -20.390625 4.1875 -20.390625 C 4.257812 -20.421875 4.347656 -20.5 4.453125 -20.625 C 4.597656 -20.945312 4.820312 -21.125 5.125 -21.15625 C 5.226562 -21.175781 5.367188 -21.097656 5.546875 -20.921875 C 5.722656 -20.566406 5.597656 -20.078125 5.171875 -19.453125 C 5.035156 -19.203125 4.945312 -18.953125 4.90625 -18.703125 C 4.675781 -18.097656 4.953125 -17.492188 5.734375 -16.890625 C 6.710938 -16.316406 7.664062 -16.972656 8.59375 -18.859375 C 9.570312 -20.742188 9.988281 -22.25 9.84375 -23.375 C 9.738281 -24.175781 9.234375 -24.867188 8.328125 -25.453125 C 7.328125 -26.078125 6.234375 -26.300781 5.046875 -26.125 Z M 5.046875 -26.125 "/></g></g></g><g fill="#00c2cb" fill-opacity="1"><g transform="translate(337.49764, 163.40422)"><g><path d="M 13.875 -27.78125 L 16.8125 -27.78125 L 18.328125 -27.671875 C 20.734375 -27.597656 23.242188 -26.65625 25.859375 -24.84375 C 27.972656 -23.207031 29.269531 -21.222656 29.75 -18.890625 C 30.050781 -17.429688 30.035156 -16.3125 29.703125 -15.53125 C 29.628906 -15.175781 29.414062 -14.800781 29.0625 -14.40625 C 28.457031 -13.820312 28.15625 -13.492188 28.15625 -13.421875 C 28.257812 -13.171875 28.5625 -12.832031 29.0625 -12.40625 C 30.125 -11.070312 30.738281 -9.5625 30.90625 -7.875 C 31.238281 -5.5625 30.597656 -3.25 28.984375 -0.9375 C 28.160156 0.164062 27.21875 1.003906 26.15625 1.578125 C 23.75 3.066406 21.1875 3.898438 18.46875 4.078125 L 15.71875 4.078125 C 13.53125 3.921875 11.519531 3.539062 9.6875 2.9375 C 8.757812 2.632812 7.753906 2.171875 6.671875 1.546875 C 5.535156 0.867188 4.554688 -0.0351562 3.734375 -1.171875 C 2.546875 -2.929688 1.914062 -4.914062 1.84375 -7.125 C 1.738281 -8.332031 1.976562 -9.566406 2.5625 -10.828125 C 2.882812 -11.421875 3.320312 -11.910156 3.875 -12.296875 C 4.207031 -12.546875 4.234375 -12.832031 3.953125 -13.15625 C 2.523438 -15.519531 2.195312 -17.894531 2.96875 -20.28125 C 3.519531 -22.09375 4.65625 -23.664062 6.375 -25 C 8.507812 -26.53125 10.519531 -27.394531 12.40625 -27.59375 C 12.882812 -27.675781 13.375 -27.738281 13.875 -27.78125 Z M 16.625 -26.171875 C 14.738281 -26.265625 12.84375 -26.0625 10.9375 -25.5625 C 7.1875 -24.207031 5 -21.972656 4.375 -18.859375 C 3.988281 -17.242188 4.390625 -15.554688 5.578125 -13.796875 C 6.023438 -13.191406 6.460938 -12.914062 6.890625 -12.96875 C 8.378906 -13.09375 9.710938 -12.851562 10.890625 -12.25 C 11.816406 -11.625 12.28125 -10.910156 12.28125 -10.109375 C 12.4375 -9.804688 12.664062 -9.65625 12.96875 -9.65625 C 14.875 -9.175781 16.882812 -8.8125 19 -8.5625 C 19.90625 -8.488281 20.644531 -8.132812 21.21875 -7.5 C 21.75 -6.519531 21.472656 -5.691406 20.390625 -5.015625 C 18.734375 -4.335938 16.738281 -4.273438 14.40625 -4.828125 C 13.570312 -5.023438 12.816406 -5.363281 12.140625 -5.84375 C 11.359375 -6.800781 11.019531 -7.84375 11.125 -8.96875 C 11.195312 -9.21875 11.179688 -9.472656 11.078125 -9.734375 C 10.953125 -10.234375 10.753906 -10.609375 10.484375 -10.859375 C 9.203125 -11.710938 7.789062 -11.925781 6.25 -11.5 C 5.394531 -11.394531 4.664062 -10.941406 4.0625 -10.140625 C 3.613281 -9.410156 3.453125 -8.15625 3.578125 -6.375 C 3.679688 -5.34375 3.921875 -4.335938 4.296875 -3.359375 C 4.796875 -2.253906 5.675781 -1.25 6.9375 -0.34375 C 9.625 1.34375 12.5 2.257812 15.5625 2.40625 L 18.328125 2.40625 C 20.410156 2.257812 22.421875 1.695312 24.359375 0.71875 C 28.222656 -1.46875 29.828125 -4.472656 29.171875 -8.296875 C 28.953125 -9.503906 28.503906 -10.507812 27.828125 -11.3125 C 27.347656 -11.863281 26.859375 -12.289062 26.359375 -12.59375 C 25.921875 -12.914062 25.539062 -13.039062 25.21875 -12.96875 C 24.039062 -12.644531 22.820312 -12.757812 21.5625 -13.3125 C 21.3125 -13.4375 20.957031 -13.695312 20.5 -14.09375 C 20.207031 -14.550781 19.757812 -14.832031 19.15625 -14.9375 C 17.769531 -15.207031 16.382812 -15.441406 15 -15.640625 C 14.375 -15.722656 13.875 -15.898438 13.5 -16.171875 C 13.039062 -16.523438 12.800781 -16.890625 12.78125 -17.265625 C 12.675781 -18.046875 13.039062 -18.675781 13.875 -19.15625 C 15.9375 -20.113281 17.910156 -19.847656 19.796875 -18.359375 C 20.296875 -17.828125 20.707031 -17.070312 21.03125 -16.09375 C 21.082031 -15.664062 21.25 -15.289062 21.53125 -14.96875 C 21.832031 -14.59375 22.320312 -14.316406 23 -14.140625 C 24.101562 -13.941406 25.304688 -14.117188 26.609375 -14.671875 C 27.617188 -15.097656 28.175781 -15.722656 28.28125 -16.546875 C 28.425781 -17.984375 27.984375 -19.566406 26.953125 -21.296875 C 26.117188 -22.503906 25.203125 -23.382812 24.203125 -23.9375 C 22.210938 -25.25 20.203125 -25.953125 18.171875 -26.046875 Z M 18.203125 -17.5 C 17.347656 -18.019531 16.34375 -18.144531 15.1875 -17.875 L 14.96875 -17.828125 C 14.863281 -17.785156 14.773438 -17.722656 14.703125 -17.640625 C 14.578125 -17.546875 14.800781 -17.4375 15.375 -17.3125 L 17.984375 -16.890625 C 18.585938 -16.785156 18.863281 -16.785156 18.8125 -16.890625 C 18.738281 -17.066406 18.535156 -17.269531 18.203125 -17.5 Z M 18.8125 -6.90625 C 17.101562 -7.125 15.441406 -7.398438 13.828125 -7.734375 C 13.222656 -7.804688 12.9375 -7.753906 12.96875 -7.578125 C 13.039062 -7.429688 13.128906 -7.28125 13.234375 -7.125 C 13.410156 -6.894531 13.710938 -6.734375 14.140625 -6.640625 C 15.742188 -6.109375 17.300781 -5.984375 18.8125 -6.265625 C 19.46875 -6.460938 19.46875 -6.675781 18.8125 -6.90625 Z M 18.8125 -6.90625 "/></g></g></g><g clip-path="url(#id1)"><g clip-path="url(#id2)"><g clip-path="url(#id3)"><g clip-path="url(#id4)"><path fill="#82d6e0" d="M 88.667969 77.070312 L 32.660156 93.140625 C 20.277344 96.699219 11.894531 108.199219 12.308594 121.0625 C 12.613281 130.542969 17.6875 139.230469 25.796875 144.160156 C 29.285156 146.28125 31.464844 150.015625 31.597656 154.09375 L 33.078125 200.152344 C 33.210938 204.226562 31.273438 208.09375 27.929688 210.433594 C 20.15625 215.878906 15.652344 224.875 15.957031 234.355469 C 16.371094 247.21875 25.480469 258.15625 38.0625 260.90625 L 94.988281 273.34375 C 110.515625 276.734375 125.089844 264.625 124.582031 248.757812 C 124.359375 241.941406 121.289062 235.527344 116.117188 231.082031 L 102.726562 219.566406 C 93.925781 212 88.707031 201.09375 88.332031 189.5 L 87.605469 171.183594 C 87.234375 159.589844 91.554688 138.355469 99.851562 130.238281 L 112.46875 117.886719 C 117.347656 113.113281 120 106.515625 119.777344 99.699219 C 119.269531 83.832031 103.941406 72.683594 88.667969 77.070312 " fill-opacity="1" fill-rule="nonzero"/></g></g></g></g><g clip-path="url(#id5)"><g clip-path="url(#id6)"><g clip-path="url(#id7)"><g clip-path="url(#id8)"><path fill="#3da5bb" d="M 41.308594 117.519531 C 38.691406 120.308594 38.832031 124.683594 41.625 127.296875 C 44.414062 129.914062 48.796875 129.773438 51.414062 126.984375 C 54.03125 124.195312 53.890625 119.816406 51.097656 117.203125 C 48.308594 114.589844 43.925781 114.730469 41.308594 117.519531 Z M 91.085938 76.121094 C 105.683594 73.179688 119.742188 84.03125 120.230469 99.21875 C 120.449219 106.035156 117.800781 112.632812 112.921875 117.402344 L 100.300781 129.753906 C 92.007812 137.871094 87.683594 159.109375 88.058594 170.703125 L 88.785156 189.019531 C 89.15625 200.613281 94.378906 211.519531 103.179688 219.085938 L 116.566406 230.597656 C 121.742188 235.046875 124.8125 241.460938 125.03125 248.277344 C 125.519531 263.464844 112.191406 275.195312 97.433594 273.203125 C 108.617188 270.917969 117.328125 260.863281 116.929688 248.539062 L 116.929688 248.535156 C 116.710938 241.722656 113.640625 235.308594 108.46875 230.859375 L 95.078125 219.347656 C 86.277344 211.78125 81.054688 200.875 80.683594 189.28125 L 79.957031 170.964844 C 79.585938 159.371094 83.90625 138.132812 92.199219 130.015625 L 104.820312 117.664062 C 109.699219 112.890625 112.347656 106.292969 112.128906 99.476562 C 111.730469 87.152344 102.394531 77.679688 91.085938 76.121094 " fill-opacity="1" fill-rule="nonzero"/></g></g></g></g><g clip-path="url(#id9)"><g clip-path="url(#id10)"><g clip-path="url(#id11)"><g clip-path="url(#id12)"><path fill="#f9ba0a" d="M 65.800781 101.539062 C 68.589844 104.152344 68.734375 108.53125 66.117188 111.320312 C 63.5 114.105469 59.117188 114.25 56.324219 111.636719 C 53.535156 109.019531 53.394531 104.644531 56.011719 101.855469 C 58.628906 99.066406 63.011719 98.925781 65.800781 101.539062 " fill-opacity="1" fill-rule="nonzero"/></g></g></g></g><g clip-path="url(#id13)"><g clip-path="url(#id14)"><g clip-path="url(#id15)"><g clip-path="url(#id16)"><path fill="#f1461f" d="M 66.582031 131.703125 C 69.371094 134.316406 69.511719 138.695312 66.894531 141.480469 C 64.277344 144.269531 59.894531 144.410156 57.105469 141.796875 C 54.3125 139.183594 54.171875 134.804688 56.789062 132.015625 C 59.40625 129.230469 63.789062 129.089844 66.582031 131.703125 " fill-opacity="1" fill-rule="nonzero"/></g></g></g></g><g clip-path="url(#id17)"><g clip-path="url(#id18)"><g clip-path="url(#id19)"><g clip-path="url(#id20)"><path fill="#7aca2a" d="M 81.285156 116.039062 C 84.074219 118.652344 84.214844 123.03125 81.597656 125.820312 C 78.980469 128.605469 74.597656 128.746094 71.808594 126.132812 C 69.015625 123.519531 68.875 119.140625 71.492188 116.355469 C 74.109375 113.566406 78.492188 113.425781 81.285156 116.039062 " fill-opacity="1" fill-rule="nonzero"/></g></g></g></g><g clip-path="url(#id21)"><g clip-path="url(#id22)"><g clip-path="url(#id23)"><g clip-path="url(#id24)"><path fill="#656263" d="M 57.234375 219.027344 L 57.324219 221.863281 C 57.394531 224.050781 55.675781 225.882812 53.484375 225.953125 L 50.648438 226.042969 C 48.457031 226.113281 46.738281 227.945312 46.808594 230.132812 L 46.875 232.25 C 46.949219 234.4375 48.78125 236.152344 50.972656 236.082031 L 53.808594 235.992188 C 56 235.921875 57.832031 237.636719 57.902344 239.828125 L 57.996094 242.660156 C 58.066406 244.847656 59.898438 246.566406 62.085938 246.496094 L 64.207031 246.425781 C 66.398438 246.355469 68.117188 244.527344 68.046875 242.335938 L 67.957031 239.503906 C 67.886719 237.316406 69.601562 235.484375 71.792969 235.414062 L 74.632812 235.320312 C 76.820312 235.25 78.539062 233.417969 78.46875 231.230469 L 78.402344 229.117188 C 78.332031 226.925781 76.5 225.210938 74.308594 225.28125 L 71.46875 225.371094 C 69.277344 225.441406 67.449219 223.726562 67.378906 221.539062 L 67.285156 218.703125 C 67.214844 216.515625 65.382812 214.796875 63.191406 214.867188 L 61.070312 214.9375 C 58.878906 215.007812 57.164062 216.839844 57.234375 219.027344 Z M 6.121094 121.261719 C 6.492188 132.867188 12.648438 143.40625 22.578125 149.445312 C 24.285156 150.484375 25.34375 152.296875 25.410156 154.292969 L 26.894531 200.351562 C 26.957031 202.347656 26.015625 204.222656 24.378906 205.371094 C 14.855469 212.039062 9.394531 222.945312 9.769531 234.554688 C 10.277344 250.265625 21.367188 263.585938 36.742188 266.949219 L 93.664062 279.382812 C 102.945312 281.410156 112.453125 279.09375 119.757812 273.027344 C 127.058594 266.957031 131.074219 258.039062 130.765625 248.558594 C 130.492188 240.035156 126.625 231.957031 120.15625 226.394531 L 106.765625 214.878906 C 99.300781 208.460938 94.835938 199.136719 94.519531 189.300781 L 94.519531 189.253906 L 93.792969 170.960938 C 93.429688 159.46875 97.976562 140.722656 104.183594 134.652344 L 116.800781 122.300781 C 122.898438 116.332031 126.242188 108.023438 125.964844 99.5 C 125.660156 90.015625 121.082031 81.375 113.402344 75.789062 C 105.726562 70.207031 96.085938 68.507812 86.957031 71.125 L 30.953125 87.199219 C 15.824219 91.542969 5.613281 105.546875 6.121094 121.261719 Z M 12.308594 121.0625 C 11.894531 108.199219 20.277344 96.699219 32.660156 93.140625 L 88.667969 77.070312 C 103.941406 72.683594 119.269531 83.832031 119.777344 99.699219 C 120 106.515625 117.347656 113.113281 112.46875 117.886719 L 99.851562 130.238281 C 91.554688 138.355469 87.234375 159.589844 87.605469 171.183594 L 88.332031 189.5 C 88.707031 201.09375 93.925781 212 102.726562 219.566406 L 116.117188 231.082031 C 121.289062 235.527344 124.359375 241.941406 124.582031 248.757812 C 125.089844 264.625 110.515625 276.734375 94.988281 273.34375 L 38.0625 260.90625 C 25.480469 258.15625 16.371094 247.21875 15.957031 234.355469 C 15.652344 224.875 20.15625 215.878906 27.929688 210.433594 C 31.273438 208.09375 33.210938 204.226562 33.078125 200.152344 L 31.597656 154.09375 C 31.464844 150.015625 29.285156 146.28125 25.796875 144.160156 C 17.6875 139.230469 12.613281 130.542969 12.308594 121.0625 " fill-opacity="1" fill-rule="nonzero"/></g></g></g></g><g clip-path="url(#id25)"><g clip-path="url(#id26)"><g clip-path="url(#id27)"><g clip-path="url(#id28)"><path fill="#e8f8fe" d="M 59.761719 158.054688 C 57.464844 158.128906 55.664062 160.046875 55.738281 162.34375 L 55.925781 168.238281 C 56 170.53125 57.921875 172.332031 60.21875 172.257812 C 62.519531 172.183594 64.320312 170.265625 64.246094 167.96875 L 64.058594 162.074219 C 63.984375 159.78125 62.058594 157.980469 59.761719 158.054688 Z M 64.753906 183.746094 L 64.945312 189.640625 C 65.019531 191.9375 63.214844 193.855469 60.917969 193.929688 C 58.621094 194.003906 56.699219 192.203125 56.625 189.910156 L 56.433594 184.015625 C 56.359375 181.71875 58.164062 179.800781 60.460938 179.726562 C 62.757812 179.652344 64.679688 181.453125 64.753906 183.746094 Z M 39.125 192.144531 L 37.640625 146.085938 C 37.488281 141.359375 34.984375 137.070312 30.941406 134.613281 C 23.347656 129.992188 18.640625 121.933594 18.355469 113.054688 C 18.253906 109.980469 18.695312 106.996094 19.59375 104.195312 C 15.996094 108.878906 13.984375 114.761719 14.183594 121 C 14.472656 129.878906 19.179688 137.9375 26.773438 142.558594 C 30.820312 145.015625 33.320312 149.304688 33.472656 154.03125 L 34.957031 200.09375 C 34.988281 200.972656 34.929688 201.839844 34.800781 202.691406 C 37.660156 199.972656 39.253906 196.164062 39.125 192.144531 Z M 91.339844 270.625 L 38.464844 259.070312 C 26.707031 256.503906 18.222656 246.3125 17.835938 234.292969 C 17.636719 228.132812 19.589844 222.230469 23.234375 217.488281 C 22.335938 220.304688 21.90625 223.296875 22.003906 226.351562 C 22.390625 238.367188 30.875 248.558594 42.632812 251.125 L 99.558594 263.5625 C 102.253906 264.152344 104.972656 264.234375 107.609375 263.855469 C 100.601562 273.421875 91.339844 270.625 91.339844 270.625 " fill-opacity="1" fill-rule="nonzero"/></g></g></g></g><g fill="#00c2cb" fill-opacity="1"><g transform="translate(113.678708, 205.632414)"><g><path d="M 1.78125 -29.015625 C 2.78125 -30.554688 4.066406 -31.398438 5.640625 -31.546875 L 26.625 -31.546875 C 27.78125 -31.484375 28.945312 -30.800781 30.125 -29.5 C 31.582031 -27.34375 31.835938 -24.976562 30.890625 -22.40625 C 30.554688 -21.375 29.769531 -20.191406 28.53125 -18.859375 C 25.363281 -15.578125 22.257812 -12.304688 19.21875 -9.046875 C 18.59375 -8.304688 18.664062 -7.9375 19.4375 -7.9375 L 26.984375 -7.9375 C 27.578125 -7.851562 28.164062 -7.722656 28.75 -7.546875 C 30.257812 -6.835938 31.222656 -5.785156 31.640625 -4.390625 C 31.992188 -3.117188 32.097656 -1.890625 31.953125 -0.703125 C 31.828125 1.421875 30.71875 3.015625 28.625 4.078125 C 28.238281 4.253906 27.796875 4.375 27.296875 4.4375 L 6.078125 4.4375 C 4.421875 4.226562 3.046875 3.429688 1.953125 2.046875 C 0.648438 0.179688 0.132812 -1.890625 0.40625 -4.171875 C 0.488281 -6.066406 1.492188 -7.882812 3.421875 -9.625 C 5.929688 -12.40625 8.503906 -15.1875 11.140625 -17.96875 C 11.734375 -18.707031 11.675781 -19.078125 10.96875 -19.078125 L 6.078125 -19.078125 L 4.3125 -19.484375 C 3.75 -19.628906 3.097656 -20.101562 2.359375 -20.90625 C 1.554688 -21.90625 1.050781 -23.113281 0.84375 -24.53125 C 0.695312 -26.007812 1.007812 -27.503906 1.78125 -29.015625 Z M 5.90625 -29.546875 C 5.425781 -29.460938 5.039062 -29.359375 4.75 -29.234375 C 3.976562 -28.859375 3.488281 -28.359375 3.28125 -27.734375 C 2.8125 -26.429688 2.695312 -25.144531 2.9375 -23.875 C 3.195312 -22.457031 4.082031 -21.554688 5.59375 -21.171875 L 6.078125 -21.078125 L 13.140625 -21.078125 C 13.847656 -21.078125 14.347656 -21.148438 14.640625 -21.296875 C 14.878906 -21.472656 15.144531 -21.710938 15.4375 -22.015625 C 16.175781 -22.929688 16.945312 -23.816406 17.75 -24.671875 C 18.21875 -25.085938 18.632812 -25.101562 19 -24.71875 C 19.226562 -24.269531 18.914062 -23.648438 18.0625 -22.859375 C 13.53125 -17.765625 8.691406 -12.4375 3.546875 -6.875 C 2.367188 -5.425781 1.984375 -3.695312 2.390625 -1.6875 C 2.484375 -1.007812 2.664062 -0.414062 2.9375 0.09375 C 3.851562 1.570312 4.929688 2.382812 6.171875 2.53125 L 26.890625 2.53125 C 28.367188 2.382812 29.359375 1.523438 29.859375 -0.046875 C 30.066406 -0.722656 30.113281 -1.609375 30 -2.703125 C 29.9375 -3.441406 29.757812 -4.035156 29.46875 -4.484375 C 29.144531 -5.046875 28.742188 -5.414062 28.265625 -5.59375 C 27.847656 -5.738281 27.332031 -5.882812 26.71875 -6.03125 L 17.3125 -6.03125 C 16.601562 -6.03125 16.097656 -5.957031 15.796875 -5.8125 C 15.203125 -5.394531 14.535156 -4.703125 13.796875 -3.734375 C 13.441406 -3.171875 13.015625 -2.898438 12.515625 -2.921875 C 12.222656 -2.953125 12.015625 -3.191406 11.890625 -3.640625 C 11.859375 -3.878906 12.007812 -4.175781 12.34375 -4.53125 C 16.78125 -9.257812 21.257812 -14.003906 25.78125 -18.765625 C 27.351562 -20.273438 28.390625 -21.535156 28.890625 -22.546875 C 29.804688 -24.410156 29.773438 -26.179688 28.796875 -27.859375 C 28.234375 -28.835938 27.4375 -29.398438 26.40625 -29.546875 Z M 5.90625 -29.546875 "/></g></g></g><g fill="#00c2cb" fill-opacity="1"><g transform="translate(146.114753, 205.632414)"><g><path d="M 14.96875 -23.421875 C 16.675781 -23.515625 18.421875 -23.265625 20.203125 -22.671875 C 21.523438 -22.171875 22.707031 -21.566406 23.75 -20.859375 C 24.988281 -19.910156 25.992188 -18.816406 26.765625 -17.578125 C 27.441406 -16.421875 27.957031 -15.234375 28.3125 -14.015625 C 28.96875 -11.210938 29.070312 -8.566406 28.625 -6.078125 C 28.125 -3.441406 26.988281 -1.078125 25.21875 1.015625 C 24.0625 2.234375 22.90625 3.140625 21.75 3.734375 C 17.84375 5.679688 13.96875 6.003906 10.125 4.703125 C 6.632812 3.671875 3.988281 1.421875 2.1875 -2.046875 C 1.320312 -4.109375 0.832031 -6.117188 0.71875 -8.078125 C 0.601562 -11.097656 1.179688 -13.921875 2.453125 -16.546875 C 3.898438 -19.273438 5.96875 -21.195312 8.65625 -22.3125 C 9.8125 -22.851562 11.203125 -23.109375 12.828125 -23.078125 C 13.421875 -22.984375 14.132812 -23.097656 14.96875 -23.421875 Z M 15.40625 -21.46875 C 14.570312 -21.414062 13.816406 -21.019531 13.140625 -20.28125 C 12.015625 -19.0625 11.691406 -17.6875 12.171875 -16.15625 C 12.316406 -15.445312 12.710938 -14.867188 13.359375 -14.421875 C 13.742188 -14.210938 14.335938 -14.066406 15.140625 -13.984375 C 15.878906 -13.859375 16.765625 -13.5 17.796875 -12.90625 C 19.421875 -11.550781 20.015625 -9.867188 19.578125 -7.859375 C 19.273438 -6.460938 18.535156 -5.335938 17.359375 -4.484375 C 15.992188 -3.804688 14.691406 -3.644531 13.453125 -4 C 12.742188 -4.175781 12.238281 -4.410156 11.9375 -4.703125 C 10.789062 -5.765625 10.171875 -6.976562 10.078125 -8.34375 C 9.960938 -9.550781 10.273438 -10.734375 11.015625 -11.890625 C 11.722656 -12.660156 12.078125 -13.101562 12.078125 -13.21875 C 12.015625 -13.34375 11.851562 -13.550781 11.59375 -13.84375 C 10.320312 -15.644531 10.128906 -17.65625 11.015625 -19.875 C 11.453125 -20.613281 11.300781 -20.957031 10.5625 -20.90625 C 8.113281 -20.457031 6.015625 -18.785156 4.265625 -15.890625 C 3.671875 -14.796875 3.257812 -13.609375 3.03125 -12.328125 C 2.375 -9.429688 2.503906 -6.640625 3.421875 -3.953125 C 4.367188 -1.171875 6.335938 0.914062 9.328125 2.3125 C 10.679688 2.8125 11.863281 3.148438 12.875 3.328125 C 16.15625 3.972656 19.4375 3.113281 22.71875 0.75 C 23.9375 -0.28125 24.882812 -1.535156 25.5625 -3.015625 C 26.363281 -4.585938 26.835938 -6.316406 26.984375 -8.203125 C 27.128906 -10.597656 26.773438 -12.878906 25.921875 -15.046875 C 25.242188 -16.910156 23.835938 -18.492188 21.703125 -19.796875 C 19.753906 -21.003906 17.65625 -21.5625 15.40625 -21.46875 Z M 14.828125 -11.984375 C 14.054688 -12.097656 13.316406 -11.664062 12.609375 -10.6875 C 12.046875 -9.945312 11.867188 -9.0625 12.078125 -8.03125 C 12.609375 -6.101562 13.925781 -5.410156 16.03125 -5.953125 C 17 -6.390625 17.5625 -7.1875 17.71875 -8.34375 C 17.738281 -8.757812 17.722656 -9.203125 17.671875 -9.671875 C 17.609375 -9.960938 17.503906 -10.257812 17.359375 -10.5625 C 16.828125 -11.382812 15.984375 -11.859375 14.828125 -11.984375 Z M 14.828125 -11.984375 "/></g></g></g><g fill="#00c2cb" fill-opacity="1"><g transform="translate(175.892106, 205.632414)"><g><path d="M 6.796875 -23.390625 C 8.390625 -23.679688 10.003906 -23.398438 11.640625 -22.546875 C 11.898438 -22.335938 12.191406 -22.320312 12.515625 -22.5 C 16.304688 -24.007812 20.140625 -23.816406 24.015625 -21.921875 C 25.960938 -20.878906 27.351562 -19.351562 28.1875 -17.34375 C 28.6875 -16.21875 29.007812 -14.960938 29.15625 -13.578125 L 29.15625 0.84375 C 28.925781 2.945312 27.703125 4.410156 25.484375 5.234375 C 23.523438 5.796875 21.644531 5.484375 19.84375 4.296875 C 18.539062 3.003906 17.945312 1.394531 18.0625 -0.53125 L 18.0625 -10.46875 C 18.03125 -11 17.765625 -11.414062 17.265625 -11.71875 C 16.410156 -12.007812 15.523438 -11.992188 14.609375 -11.671875 C 13.691406 -11.078125 13.1875 -10.234375 13.09375 -9.140625 L 13.09375 0.703125 C 12.65625 3.484375 11.03125 5.082031 8.21875 5.5 C 6.414062 5.59375 4.921875 5.191406 3.734375 4.296875 C 2.429688 3.003906 1.835938 1.394531 1.953125 -0.53125 L 1.953125 -18.234375 C 2.222656 -21.109375 3.835938 -22.828125 6.796875 -23.390625 Z M 9.6875 -21.203125 C 8 -21.742188 6.472656 -21.554688 5.109375 -20.640625 C 4.429688 -20.078125 4.019531 -19.203125 3.875 -18.015625 L 3.875 0.484375 C 4.019531 1.578125 4.429688 2.390625 5.109375 2.921875 C 6.171875 3.484375 7.351562 3.632812 8.65625 3.375 C 10.082031 3.019531 10.910156 2.160156 11.140625 0.796875 L 11.140625 -8.96875 C 11.234375 -9.550781 11.351562 -10.140625 11.5 -10.734375 C 12.300781 -12.804688 13.828125 -13.875 16.078125 -13.9375 C 17.609375 -13.875 18.757812 -13.296875 19.53125 -12.203125 C 19.738281 -11.910156 19.882812 -11.46875 19.96875 -10.875 L 19.96875 0.484375 C 20.125 1.285156 20.332031 1.878906 20.59375 2.265625 C 21.539062 3.265625 22.769531 3.664062 24.28125 3.46875 C 25.96875 3.3125 26.972656 2.40625 27.296875 0.75 L 27.296875 -13.21875 C 27.085938 -14.9375 26.597656 -16.414062 25.828125 -17.65625 C 24.941406 -18.957031 23.832031 -19.90625 22.5 -20.5 C 20.226562 -21.59375 17.613281 -21.785156 14.65625 -21.078125 C 13.019531 -20.804688 11.316406 -19.625 9.546875 -17.53125 C 9.128906 -17.257812 8.789062 -17.300781 8.53125 -17.65625 C 8.289062 -18.21875 8.492188 -18.828125 9.140625 -19.484375 C 9.941406 -20.253906 10.359375 -20.664062 10.390625 -20.71875 C 10.328125 -20.988281 10.09375 -21.148438 9.6875 -21.203125 Z M 9.6875 -21.203125 "/></g></g></g><g fill="#00c2cb" fill-opacity="1"><g transform="translate(207.619166, 205.632414)"><g><path d="M 13.609375 -23.390625 C 16.722656 -23.617188 19.640625 -22.992188 22.359375 -21.515625 C 25.203125 -19.921875 27.066406 -17.734375 27.953125 -14.953125 C 28.773438 -13.085938 28.90625 -11.117188 28.34375 -9.046875 C 28.164062 -8.609375 28.140625 -8.125 28.265625 -7.59375 C 28.828125 -6.582031 29.046875 -5.5625 28.921875 -4.53125 C 28.742188 -3.34375 28.300781 -2.15625 27.59375 -0.96875 C 26.351562 1.269531 24.238281 3.070312 21.25 4.4375 C 20.03125 4.851562 18.847656 5.148438 17.703125 5.328125 C 15.128906 5.710938 12.421875 5.460938 9.578125 4.578125 C 6.890625 3.742188 4.65625 2.039062 2.875 -0.53125 C 1.664062 -2.570312 0.957031 -5.117188 0.75 -8.171875 C 0.601562 -10.503906 1.003906 -12.8125 1.953125 -15.09375 C 3.222656 -18.070312 5.070312 -20.195312 7.5 -21.46875 C 9.332031 -22.507812 11.367188 -23.148438 13.609375 -23.390625 Z M 13.53125 -21.390625 C 10.988281 -21.148438 8.578125 -20.082031 6.296875 -18.1875 C 5.234375 -17.21875 4.375 -15.976562 3.71875 -14.46875 C 2.625 -11.863281 2.375 -9.050781 2.96875 -6.03125 C 3.226562 -4.613281 3.566406 -3.429688 3.984375 -2.484375 C 5.523438 0.234375 7.640625 1.992188 10.328125 2.796875 C 13.078125 3.648438 15.84375 3.78125 18.625 3.1875 C 20.726562 2.65625 22.503906 1.753906 23.953125 0.484375 C 25.785156 -1.222656 26.773438 -3 26.921875 -4.84375 C 27.046875 -5.84375 26.707031 -6.726562 25.90625 -7.5 C 24.664062 -8.382812 23.363281 -8.707031 22 -8.46875 C 21.019531 -8.289062 20.265625 -7.640625 19.734375 -6.515625 C 19.054688 -5.066406 18.023438 -4.238281 16.640625 -4.03125 C 15.179688 -3.675781 13.703125 -3.859375 12.203125 -4.578125 C 11.785156 -4.867188 11.472656 -5.015625 11.265625 -5.015625 C 9.847656 -5.460938 8.972656 -6.394531 8.640625 -7.8125 C 8.441406 -9.226562 8.503906 -10.484375 8.828125 -11.578125 C 9.148438 -12.441406 9.800781 -13.109375 10.78125 -13.578125 L 12.109375 -13.9375 C 12.492188 -14.195312 13.085938 -14.34375 13.890625 -14.375 C 15.953125 -14.582031 17.59375 -14.285156 18.8125 -13.484375 C 19.425781 -13.160156 19.539062 -12.804688 19.15625 -12.421875 C 19.039062 -12.359375 18.554688 -12.328125 17.703125 -12.328125 L 11.890625 -12.328125 C 11.179688 -12.179688 10.644531 -11.769531 10.28125 -11.09375 C 9.695312 -9.757812 9.773438 -8.503906 10.515625 -7.328125 C 10.867188 -6.816406 11.28125 -6.546875 11.75 -6.515625 L 12.015625 -6.4375 L 16.40625 -6.4375 C 17.125 -6.4375 17.554688 -6.460938 17.703125 -6.515625 C 17.847656 -6.609375 18.039062 -6.800781 18.28125 -7.09375 C 18.894531 -8.457031 19.738281 -9.316406 20.8125 -9.671875 C 22.644531 -10.148438 24.09375 -10.148438 25.15625 -9.671875 C 25.863281 -9.347656 26.25 -9.203125 26.3125 -9.234375 C 27.132812 -11.359375 26.765625 -13.707031 25.203125 -16.28125 C 23.660156 -18.53125 21.796875 -19.992188 19.609375 -20.671875 C 17.535156 -21.359375 15.507812 -21.597656 13.53125 -21.390625 Z M 13.53125 -21.390625 "/></g></g></g></svg>