<svg xmlns="http://www.w3.org/2000/svg" xmlns:xlink="http://www.w3.org/1999/xlink" width="500" zoomAndPan="magnify" viewBox="0 0 375 374.999991" height="500" preserveAspectRatio="xMidYMid meet" version="1.0"><defs><g/></defs><path fill="#82d6e0" d="M 314.242188 178.507812 L 296.113281 106.921875 C 292.101562 91.09375 277.832031 80.003906 261.472656 80.003906 C 249.414062 80.003906 238.171875 86.074219 231.574219 96.148438 C 228.738281 100.476562 223.902344 103.085938 218.71875 103.085938 L 160.144531 103.085938 C 154.960938 103.085938 150.128906 100.476562 147.289062 96.148438 C 140.691406 86.074219 129.445312 80.003906 117.386719 80.003906 C 101.03125 80.003906 86.761719 91.09375 82.75 106.921875 L 64.625 178.507812 C 59.679688 198.03125 74.46875 216.984375 94.644531 216.984375 C 103.3125 216.984375 111.589844 213.355469 117.453125 206.984375 L 132.625 190.5 C 142.601562 179.660156 156.667969 173.496094 171.414062 173.496094 L 194.710938 173.320312 C 209.457031 173.320312 236.261719 179.660156 246.234375 190.5 L 261.410156 206.984375 C 267.277344 213.355469 275.546875 216.984375 284.214844 216.984375 C 304.398438 216.984375 319.1875 198.03125 314.242188 178.507812 " fill-opacity="1" fill-rule="nonzero"/><path fill="#3da5bb" d="M 264.789062 116.878906 C 261.355469 113.449219 255.785156 113.449219 252.351562 116.878906 C 248.914062 120.304688 248.914062 125.863281 252.351562 129.289062 C 255.785156 132.71875 261.355469 132.71875 264.789062 129.289062 C 268.222656 125.863281 268.222656 120.304688 264.789062 116.878906 Z M 315.347656 181.605469 C 318.488281 200.214844 304.125 217.574219 284.8125 217.574219 C 276.140625 217.574219 267.867188 213.949219 262.003906 207.578125 L 246.832031 191.089844 C 236.855469 180.253906 210.050781 173.914062 195.308594 173.914062 L 172.007812 174.085938 C 157.261719 174.085938 143.195312 180.253906 133.21875 191.089844 L 118.046875 207.578125 C 112.179688 213.949219 103.910156 217.574219 95.238281 217.574219 C 75.925781 217.574219 61.5625 200.214844 64.699219 181.605469 C 67.144531 195.863281 79.5625 207.304688 95.238281 207.304688 C 103.910156 207.304688 112.179688 203.675781 118.046875 197.308594 L 133.21875 180.820312 C 143.195312 169.984375 157.261719 163.816406 172.007812 163.816406 L 195.308594 163.644531 C 210.050781 163.644531 236.855469 169.984375 246.832031 180.820312 L 262.003906 197.308594 C 267.867188 203.675781 276.140625 207.304688 284.8125 207.304688 C 300.488281 207.304688 312.902344 195.863281 315.347656 181.605469 " fill-opacity="1" fill-rule="nonzero"/><path fill="#f9ba0a" d="M 284.085938 148.550781 C 280.652344 151.976562 275.085938 151.976562 271.648438 148.550781 C 268.214844 145.121094 268.214844 139.566406 271.648438 136.136719 C 275.085938 132.710938 280.652344 132.710938 284.085938 136.136719 C 287.519531 139.566406 287.519531 145.121094 284.085938 148.550781 " fill-opacity="1" fill-rule="nonzero"/><path fill="#f1461f" d="M 245.734375 148.304688 C 242.300781 151.734375 236.730469 151.734375 233.296875 148.304688 C 229.863281 144.875 229.863281 139.320312 233.296875 135.894531 C 236.730469 132.464844 242.300781 132.464844 245.734375 135.894531 C 249.171875 139.320312 249.171875 144.875 245.734375 148.304688 " fill-opacity="1" fill-rule="nonzero"/><path fill="#7aca2a" d="M 265.035156 167.5625 C 261.597656 170.992188 256.03125 170.992188 252.59375 167.5625 C 249.160156 164.136719 249.160156 158.582031 252.59375 155.152344 C 256.03125 151.722656 261.597656 151.722656 265.035156 155.152344 C 268.46875 158.582031 268.46875 164.136719 265.035156 167.5625 " fill-opacity="1" fill-rule="nonzero"/><path fill="#656263" d="M 135.175781 132.90625 L 131.570312 132.90625 C 128.785156 132.90625 126.53125 130.652344 126.53125 127.878906 L 126.53125 124.277344 C 126.53125 121.503906 124.273438 119.25 121.492188 119.25 L 118.800781 119.25 C 116.015625 119.25 113.761719 121.503906 113.761719 124.277344 L 113.761719 127.878906 C 113.761719 130.652344 111.503906 132.90625 108.722656 132.90625 L 105.117188 132.90625 C 102.335938 132.90625 100.078125 135.15625 100.078125 137.933594 L 100.078125 140.621094 C 100.078125 143.398438 102.335938 145.648438 105.117188 145.648438 L 108.722656 145.648438 C 111.503906 145.648438 113.761719 147.898438 113.761719 150.675781 L 113.761719 154.277344 C 113.761719 157.050781 116.015625 159.304688 118.800781 159.304688 L 121.492188 159.304688 C 124.273438 159.304688 126.53125 157.050781 126.53125 154.277344 L 126.53125 150.675781 C 126.53125 147.898438 128.785156 145.648438 131.570312 145.648438 L 135.175781 145.648438 C 137.957031 145.648438 140.214844 143.398438 140.214844 140.621094 L 140.214844 137.933594 C 140.214844 135.15625 137.957031 132.90625 135.175781 132.90625 Z M 261.472656 72.160156 C 246.710938 72.160156 233.074219 79.523438 224.996094 91.855469 C 223.605469 93.976562 221.257812 95.242188 218.71875 95.242188 L 160.144531 95.242188 C 157.601562 95.242188 155.257812 93.976562 153.867188 91.855469 C 145.789062 79.523438 132.152344 72.160156 117.386719 72.160156 C 97.40625 72.160156 80.03125 85.664062 75.132812 105 L 57.003906 176.582031 C 54.046875 188.25 56.601562 200.386719 64.011719 209.882812 C 71.421875 219.378906 82.585938 224.828125 94.644531 224.828125 C 105.484375 224.828125 115.90625 220.257812 123.242188 212.292969 L 138.414062 195.804688 C 146.878906 186.613281 158.90625 181.339844 171.414062 181.339844 L 171.472656 181.339844 L 194.742188 181.164062 C 209.359375 181.175781 232.988281 187.699219 240.449219 195.804688 L 255.625 212.292969 C 262.957031 220.257812 273.378906 224.828125 284.214844 224.828125 C 296.277344 224.828125 307.445312 219.378906 314.851562 209.882812 C 322.261719 200.386719 324.816406 188.25 321.863281 176.582031 L 303.730469 105 C 298.835938 85.664062 281.457031 72.160156 261.472656 72.160156 Z M 261.472656 80.003906 C 277.832031 80.003906 292.101562 91.09375 296.113281 106.921875 L 314.242188 178.507812 C 319.1875 198.03125 304.398438 216.984375 284.214844 216.984375 C 275.546875 216.984375 267.277344 213.355469 261.410156 206.984375 L 246.234375 190.5 C 236.261719 179.660156 209.457031 173.320312 194.710938 173.320312 L 171.414062 173.496094 C 156.667969 173.496094 142.601562 179.660156 132.625 190.5 L 117.453125 206.984375 C 111.589844 213.355469 103.3125 216.984375 94.644531 216.984375 C 74.46875 216.984375 59.679688 198.03125 64.625 178.507812 L 82.75 106.921875 C 86.761719 91.09375 101.03125 80.003906 117.386719 80.003906 C 129.445312 80.003906 140.691406 86.074219 147.289062 96.148438 C 150.128906 100.476562 154.960938 103.085938 160.144531 103.085938 L 218.71875 103.085938 C 223.902344 103.085938 228.738281 100.476562 231.574219 96.148438 C 238.171875 86.074219 249.414062 80.003906 261.472656 80.003906 " fill-opacity="1" fill-rule="nonzero"/><path fill="#e8f8fe" d="M 212.535156 138.597656 C 212.535156 135.683594 210.171875 133.320312 207.25 133.320312 L 199.753906 133.320312 C 196.835938 133.320312 194.46875 135.683594 194.46875 138.597656 C 194.46875 141.507812 196.835938 143.871094 199.753906 143.871094 L 207.25 143.871094 C 210.171875 143.871094 212.535156 141.507812 212.535156 138.597656 Z M 179.691406 143.871094 L 172.191406 143.871094 C 169.273438 143.871094 166.90625 141.507812 166.90625 138.597656 C 166.90625 135.683594 169.273438 133.320312 172.191406 133.320312 L 179.691406 133.320312 C 182.609375 133.320312 184.972656 135.683594 184.972656 138.597656 C 184.972656 141.507812 182.609375 143.871094 179.691406 143.871094 Z M 170.066406 111.070312 L 228.644531 111.070312 C 234.65625 111.070312 240.207031 108.074219 243.496094 103.054688 C 249.675781 93.621094 260.109375 87.992188 271.398438 87.992188 C 275.308594 87.992188 279.085938 88.667969 282.605469 89.921875 C 276.800781 85.175781 269.410156 82.386719 261.476562 82.386719 C 250.183594 82.386719 239.753906 88.019531 233.574219 97.453125 C 230.28125 102.472656 224.730469 105.46875 218.71875 105.46875 L 160.140625 105.46875 C 159.023438 105.46875 157.921875 105.363281 156.847656 105.160156 C 160.183594 108.898438 164.957031 111.070312 170.066406 111.070312 Z M 68.226562 173.996094 L 85.066406 107.503906 C 88.8125 92.714844 102.105469 82.386719 117.390625 82.386719 C 125.226562 82.386719 132.644531 85.101562 138.519531 89.910156 C 134.976562 88.65625 131.195312 87.992188 127.3125 87.992188 C 112.027344 87.992188 98.734375 98.316406 94.988281 113.105469 L 76.863281 184.691406 C 76.003906 188.082031 75.789062 191.519531 76.160156 194.875 C 64.292969 185.609375 68.226562 173.996094 68.226562 173.996094 " fill-opacity="1" fill-rule="nonzero"/><g fill="#00c2cb" fill-opacity="1"><g transform="translate(15.402617, 252.343022)"><g><path d="M 12.328125 -22.125 L 14.21875 -22.125 C 15.863281 -22.019531 17.460938 -21.675781 19.015625 -21.09375 C 21.335938 -20.257812 23.179688 -18.738281 24.546875 -16.53125 C 25.640625 -14.550781 25.898438 -12.789062 25.328125 -11.25 C 25.285156 -10.988281 25.375 -10.691406 25.59375 -10.359375 C 25.789062 -9.898438 25.929688 -9.5 26.015625 -9.15625 C 26.148438 -8.695312 26.179688 -7.984375 26.109375 -7.015625 C 25.984375 -5.421875 25.472656 -3.820312 24.578125 -2.21875 C 23.378906 -0.320312 21.867188 1.054688 20.046875 1.921875 C 18.460938 2.703125 16.71875 3.140625 14.8125 3.234375 L 12.359375 3.234375 C 9.816406 3.097656 7.414062 2.203125 5.15625 0.546875 C 4.289062 -0.140625 3.582031 -0.898438 3.03125 -1.734375 C 1.445312 -4.253906 0.734375 -7.019531 0.890625 -10.03125 C 1.035156 -12.125 1.585938 -14.125 2.546875 -16.03125 C 3.179688 -17.207031 4.257812 -18.445312 5.78125 -19.75 C 7.84375 -21.1875 10.023438 -21.976562 12.328125 -22.125 Z M 12.515625 -20.828125 C 11.128906 -20.710938 9.796875 -20.363281 8.515625 -19.78125 C 6.640625 -18.875 5.117188 -17.539062 3.953125 -15.78125 C 2.335938 -12.664062 1.859375 -9.566406 2.515625 -6.484375 C 2.648438 -5.597656 2.890625 -4.796875 3.234375 -4.078125 C 4.054688 -2.253906 5.359375 -0.828125 7.140625 0.203125 C 9.316406 1.484375 11.664062 2.054688 14.1875 1.921875 C 15.96875 1.898438 17.585938 1.570312 19.046875 0.9375 C 21.023438 0.0703125 22.554688 -1.328125 23.640625 -3.265625 C 24.484375 -4.867188 24.875 -6.550781 24.8125 -8.3125 C 24.75 -8.75 24.648438 -9.148438 24.515625 -9.515625 C 24.410156 -9.734375 24.289062 -9.832031 24.15625 -9.8125 C 24.007812 -9.8125 23.769531 -9.660156 23.4375 -9.359375 C 22.132812 -8.597656 20.789062 -8.3125 19.40625 -8.5 C 18.769531 -8.632812 18.234375 -9.09375 17.796875 -9.875 C 17.578125 -10.269531 17.382812 -10.671875 17.21875 -11.078125 C 17.15625 -11.296875 17.066406 -11.445312 16.953125 -11.53125 C 16.910156 -11.550781 16.648438 -11.5625 16.171875 -11.5625 L 13.953125 -11.5625 L 13.34375 -11.40625 C 13.0625 -11.34375 12.773438 -11.125 12.484375 -10.75 C 12.273438 -10.507812 12.144531 -10.109375 12.09375 -9.546875 C 11.988281 -8.503906 12.257812 -7.710938 12.90625 -7.171875 C 13.175781 -7.015625 13.570312 -6.882812 14.09375 -6.78125 L 17.015625 -6.78125 C 17.609375 -6.78125 18.007812 -6.738281 18.21875 -6.65625 C 18.53125 -6.4375 18.617188 -6.148438 18.484375 -5.796875 C 18.316406 -5.335938 18.015625 -4.96875 17.578125 -4.6875 C 17.160156 -4.425781 16.757812 -4.273438 16.375 -4.234375 C 14.175781 -3.828125 12.378906 -3.945312 10.984375 -4.59375 C 10.597656 -4.769531 10.207031 -5.097656 9.8125 -5.578125 C 9.1875 -6.378906 8.832031 -7.179688 8.75 -7.984375 C 8.507812 -9.828125 8.769531 -11.53125 9.53125 -13.09375 C 10.550781 -14.488281 11.753906 -15.207031 13.140625 -15.25 C 14.160156 -15.34375 15.09375 -15.179688 15.9375 -14.765625 C 16.789062 -14.285156 17.410156 -13.566406 17.796875 -12.609375 C 18.085938 -11.703125 18.445312 -10.898438 18.875 -10.203125 C 19.269531 -9.597656 19.835938 -9.347656 20.578125 -9.453125 C 21.441406 -9.578125 22.242188 -9.867188 22.984375 -10.328125 C 23.441406 -10.609375 23.757812 -10.96875 23.9375 -11.40625 C 24.34375 -12.1875 24.40625 -13.109375 24.125 -14.171875 C 23.6875 -15.953125 22.457031 -17.53125 20.4375 -18.90625 C 18.289062 -20.25 15.648438 -20.890625 12.515625 -20.828125 Z M 15.6875 -13.359375 C 14.601562 -13.992188 13.472656 -14.113281 12.296875 -13.71875 C 11.753906 -13.539062 11.242188 -13.160156 10.765625 -12.578125 C 9.960938 -10.816406 9.785156 -9.078125 10.234375 -7.359375 C 10.453125 -6.753906 10.929688 -6.210938 11.671875 -5.734375 C 12.734375 -5.328125 13.910156 -5.207031 15.203125 -5.375 C 15.691406 -5.457031 15.710938 -5.5 15.265625 -5.5 L 13.859375 -5.5 C 13.335938 -5.570312 12.9375 -5.671875 12.65625 -5.796875 C 12.21875 -5.953125 11.828125 -6.25 11.484375 -6.6875 C 10.703125 -7.851562 10.550781 -9.195312 11.03125 -10.71875 C 11.4375 -11.738281 12.066406 -12.40625 12.921875 -12.71875 C 13.484375 -12.90625 14.265625 -12.96875 15.265625 -12.90625 C 15.804688 -12.90625 15.945312 -13.054688 15.6875 -13.359375 Z M 15.6875 -13.359375 "/></g></g></g><g fill="#00c2cb" fill-opacity="1"><g transform="translate(48.48847, 252.343022)"><g><path d="M 9.03125 -21.25 C 10.53125 -22.113281 12.039062 -22.363281 13.5625 -22 C 14.582031 -21.800781 15.484375 -21.25 16.265625 -20.34375 C 16.566406 -20.007812 16.835938 -19.613281 17.078125 -19.15625 C 19.492188 -13.550781 21.894531 -7.945312 24.28125 -2.34375 C 24.90625 -0.976562 24.851562 0.203125 24.125 1.203125 C 23.625 1.859375 23.15625 2.285156 22.71875 2.484375 C 21 3.367188 19.28125 3.488281 17.5625 2.84375 C 17.132812 2.664062 16.734375 2.367188 16.359375 1.953125 C 16.035156 1.535156 15.722656 1.035156 15.421875 0.453125 C 15.347656 0.328125 15.238281 0.242188 15.09375 0.203125 L 9.515625 0.203125 C 9.035156 0.171875 8.710938 0.203125 8.546875 0.296875 C 8.515625 0.335938 8.445312 0.457031 8.34375 0.65625 C 8.101562 1.351562 7.691406 1.945312 7.109375 2.4375 C 5.609375 3.457031 3.878906 3.554688 1.921875 2.734375 C 0.460938 2.015625 -0.296875 0.953125 -0.359375 -0.453125 C -0.316406 -1.191406 -0.132812 -1.988281 0.1875 -2.84375 C 2.300781 -7.851562 4.429688 -12.859375 6.578125 -17.859375 C 6.710938 -18.253906 6.867188 -18.65625 7.046875 -19.0625 C 7.492188 -19.9375 8.15625 -20.664062 9.03125 -21.25 Z M 11.953125 -20.828125 C 10.804688 -20.722656 9.851562 -20.34375 9.09375 -19.6875 C 8.632812 -19.164062 8.375 -18.765625 8.3125 -18.484375 C 5.75 -12.609375 3.347656 -7.007812 1.109375 -1.6875 C 0.546875 -0.320312 1.035156 0.757812 2.578125 1.5625 C 3.597656 1.9375 4.5625 2.015625 5.46875 1.796875 C 6.5625 1.398438 7.171875 0.691406 7.296875 -0.328125 C 7.296875 -0.453125 7.078125 -0.742188 6.640625 -1.203125 C 5.910156 -2.296875 5.6875 -3.585938 5.96875 -5.078125 C 6.070312 -5.953125 6.59375 -6.679688 7.53125 -7.265625 C 8.070312 -7.460938 8.59375 -7.582031 9.09375 -7.625 C 9.570312 -7.625 9.84375 -7.644531 9.90625 -7.6875 C 10.125 -7.800781 10.253906 -7.953125 10.296875 -8.140625 C 10.410156 -8.578125 10.707031 -9.375 11.1875 -10.53125 C 11.375 -10.914062 11.445312 -11.21875 11.40625 -11.4375 C 11.34375 -11.738281 11.203125 -12.140625 10.984375 -12.640625 C 10.765625 -13.191406 10.625 -13.59375 10.5625 -13.84375 C 10.476562 -14.039062 10.53125 -14.21875 10.71875 -14.375 C 11.050781 -14.550781 11.300781 -14.398438 11.46875 -13.921875 C 12.207031 -11.921875 12.96875 -9.921875 13.75 -7.921875 C 13.96875 -7.660156 14.4375 -7.570312 15.15625 -7.65625 C 16.738281 -7.53125 17.707031 -6.75 18.0625 -5.3125 C 18.40625 -4.09375 18.335938 -2.882812 17.859375 -1.6875 C 17.679688 -1.300781 17.332031 -0.925781 16.8125 -0.5625 C 16.644531 -0.40625 16.613281 -0.207031 16.71875 0.03125 C 17.15625 1.113281 17.804688 1.703125 18.671875 1.796875 C 19.890625 2.097656 21.097656 1.890625 22.296875 1.171875 C 23.222656 0.492188 23.554688 -0.273438 23.296875 -1.140625 C 23.148438 -1.773438 22.847656 -2.578125 22.390625 -3.546875 C 20.285156 -8.347656 18.210938 -13.148438 16.171875 -17.953125 C 15.316406 -19.972656 13.910156 -20.929688 11.953125 -20.828125 Z M 12.15625 -8.4375 C 12.050781 -8.71875 11.941406 -8.71875 11.828125 -8.4375 C 11.742188 -8.175781 11.722656 -8.023438 11.765625 -7.984375 C 12.203125 -7.878906 12.332031 -8.03125 12.15625 -8.4375 Z M 8.890625 -6.609375 C 7.867188 -6.441406 7.226562 -5.878906 6.96875 -4.921875 C 6.78125 -4.460938 6.769531 -3.800781 6.9375 -2.9375 C 7.050781 -2.15625 7.507812 -1.597656 8.3125 -1.265625 C 8.488281 -1.222656 8.71875 -1.171875 9 -1.109375 L 15.28125 -1.109375 C 16.195312 -1.171875 16.828125 -1.734375 17.171875 -2.796875 C 17.390625 -3.515625 17.359375 -4.3125 17.078125 -5.1875 C 16.816406 -5.96875 16.25 -6.441406 15.375 -6.609375 Z M 8.890625 -6.609375 "/></g></g></g><g fill="#00c2cb" fill-opacity="1"><g transform="translate(78.873243, 252.343022)"><g><path d="M 5.875 -22.0625 C 7.144531 -22.320312 8.519531 -22.0625 10 -21.28125 C 11.019531 -20.625 11.726562 -19.851562 12.125 -18.96875 C 12.445312 -18.164062 12.75 -17.363281 13.03125 -16.5625 L 14.703125 -11.890625 C 14.898438 -11.410156 15.113281 -11.410156 15.34375 -11.890625 C 16.394531 -14.242188 17.421875 -16.601562 18.421875 -18.96875 C 18.648438 -19.488281 18.898438 -19.890625 19.171875 -20.171875 C 19.796875 -20.910156 20.585938 -21.46875 21.546875 -21.84375 C 23.242188 -22.382812 24.847656 -22.195312 26.359375 -21.28125 C 27.316406 -20.632812 27.90625 -19.882812 28.125 -19.03125 C 28.238281 -18.789062 28.347656 -18.359375 28.453125 -17.734375 L 28.453125 0.0625 C 28.347656 1.40625 27.554688 2.460938 26.078125 3.234375 C 25.441406 3.492188 24.691406 3.597656 23.828125 3.546875 C 22.953125 3.460938 22.15625 3.179688 21.4375 2.703125 C 20.570312 1.941406 20.097656 1.101562 20.015625 0.1875 L 20.015625 -0.90625 C 20.015625 -1.425781 19.90625 -1.414062 19.6875 -0.875 C 19.507812 -0.507812 19.359375 -0.15625 19.234375 0.1875 C 18.929688 0.957031 18.34375 1.675781 17.46875 2.34375 C 16.582031 2.976562 15.625 3.269531 14.59375 3.21875 C 13.601562 3.175781 12.597656 2.691406 11.578125 1.765625 C 11.003906 1.191406 10.617188 0.535156 10.421875 -0.203125 C 10.191406 -0.703125 10.070312 -0.703125 10.0625 -0.203125 C 10 0.628906 9.765625 1.347656 9.359375 1.953125 C 8.859375 2.628906 8.289062 3.066406 7.65625 3.265625 C 6.695312 3.628906 5.695312 3.703125 4.65625 3.484375 C 3.9375 3.398438 3.234375 3.0625 2.546875 2.46875 C 2.304688 2.238281 2.148438 2.046875 2.078125 1.890625 C 1.753906 1.253906 1.5625 0.65625 1.5 0.09375 L 1.5 -17.375 C 1.582031 -18.238281 1.875 -19.039062 2.375 -19.78125 C 3.394531 -21.0625 4.5625 -21.820312 5.875 -22.0625 Z M 6.6875 -20.828125 C 5.113281 -20.691406 3.914062 -19.84375 3.09375 -18.28125 C 2.96875 -18.019531 2.878906 -17.679688 2.828125 -17.265625 L 2.828125 0 C 2.859375 0.414062 3.003906 0.816406 3.265625 1.203125 C 3.546875 1.597656 3.9375 1.878906 4.4375 2.046875 C 5.476562 2.398438 6.5 2.347656 7.5 1.890625 C 7.976562 1.585938 8.320312 1.21875 8.53125 0.78125 C 8.601562 0.519531 8.660156 0.25 8.703125 -0.03125 L 8.703125 -4.953125 C 8.597656 -5.410156 8.289062 -6.210938 7.78125 -7.359375 C 7.195312 -8.753906 6.632812 -10.15625 6.09375 -11.5625 C 5.945312 -11.851562 5.894531 -12.070312 5.9375 -12.21875 C 6.019531 -12.476562 6.148438 -12.609375 6.328125 -12.609375 C 6.609375 -12.648438 6.847656 -12.429688 7.046875 -11.953125 C 8.492188 -8.285156 10.132812 -4.28125 11.96875 0.0625 C 12.570312 1.0625 13.472656 1.671875 14.671875 1.890625 C 15.648438 1.972656 16.550781 1.5625 17.375 0.65625 C 17.695312 0.34375 17.9375 -0.0546875 18.09375 -0.546875 C 18.757812 -2.140625 19.429688 -3.738281 20.109375 -5.34375 C 20.210938 -5.539062 20.28125 -5.75 20.3125 -5.96875 L 20.3125 -11.5 C 20.257812 -12.070312 20.320312 -12.488281 20.5 -12.75 C 20.675781 -12.914062 20.859375 -12.945312 21.046875 -12.84375 C 21.242188 -12.75 21.34375 -12.609375 21.34375 -12.421875 L 21.34375 0.09375 C 21.476562 0.875 21.847656 1.441406 22.453125 1.796875 C 23.929688 2.378906 25.179688 2.34375 26.203125 1.6875 C 26.765625 1.1875 27.070312 0.625 27.125 0 L 27.125 -17.734375 C 26.988281 -18.710938 26.484375 -19.535156 25.609375 -20.203125 C 24.378906 -20.984375 23.035156 -21.039062 21.578125 -20.375 C 20.835938 -20.070312 20.207031 -19.453125 19.6875 -18.515625 C 18.445312 -15.710938 17.226562 -12.910156 16.03125 -10.109375 C 15.601562 -9.429688 15.507812 -8.832031 15.75 -8.3125 L 16.890625 -5.3125 C 17.210938 -4.707031 17.1875 -4.285156 16.8125 -4.046875 C 16.382812 -3.910156 16.113281 -4.125 16 -4.6875 C 13.65625 -10.820312 12.023438 -15.222656 11.109375 -17.890625 C 10.867188 -18.734375 10.273438 -19.484375 9.328125 -20.140625 C 8.515625 -20.660156 7.632812 -20.890625 6.6875 -20.828125 Z M 6.6875 -20.828125 "/></g></g></g><g fill="#00c2cb" fill-opacity="1"><g transform="translate(114.7202, 252.343022)"><g><path d="M 2.609375 -19.15625 C 3.710938 -20.425781 5.070312 -21.15625 6.6875 -21.34375 L 20.953125 -21.34375 C 21.347656 -21.28125 21.75 -21.160156 22.15625 -20.984375 C 23.09375 -20.535156 23.671875 -19.832031 23.890625 -18.875 C 24.109375 -18.113281 24.160156 -17.332031 24.046875 -16.53125 C 23.785156 -14.71875 22.765625 -13.671875 20.984375 -13.390625 L 10.78125 -13.390625 C 10.300781 -13.390625 10.019531 -13.378906 9.9375 -13.359375 C 9.789062 -13.296875 9.789062 -13.195312 9.9375 -13.0625 C 9.976562 -13.039062 10.238281 -13.03125 10.71875 -13.03125 L 18.84375 -13.03125 C 19.726562 -12.96875 20.5 -12.515625 21.15625 -11.671875 C 21.894531 -10.410156 22.078125 -9.09375 21.703125 -7.71875 C 21.179688 -6.25 20.191406 -5.414062 18.734375 -5.21875 L 10.71875 -5.21875 C 10.238281 -5.21875 9.96875 -5.207031 9.90625 -5.1875 C 9.78125 -5.070312 9.78125 -4.984375 9.90625 -4.921875 C 9.96875 -4.878906 10.238281 -4.859375 10.71875 -4.859375 L 20.953125 -4.859375 C 21.972656 -4.742188 22.765625 -4.34375 23.328125 -3.65625 C 24.203125 -2.257812 24.378906 -0.738281 23.859375 0.90625 C 23.742188 1.257812 23.523438 1.640625 23.203125 2.046875 C 22.660156 2.617188 21.910156 2.988281 20.953125 3.15625 L 7.015625 3.15625 C 6.078125 3.050781 5.28125 2.8125 4.625 2.4375 C 3.738281 2.007812 2.945312 1.265625 2.25 0.203125 C 1.851562 -0.554688 1.582031 -1.582031 1.4375 -2.875 L 1.4375 -15.546875 C 1.582031 -16.960938 1.972656 -18.164062 2.609375 -19.15625 Z M 6.90625 -19.984375 C 6.425781 -19.929688 5.9375 -19.8125 5.4375 -19.625 C 4.007812 -19.0625 3.175781 -18.03125 2.9375 -16.53125 C 2.863281 -16.175781 2.804688 -15.804688 2.765625 -15.421875 L 2.765625 -3.0625 L 2.90625 -1.859375 C 3.40625 0.222656 4.738281 1.441406 6.90625 1.796875 L 20.984375 1.796875 C 21.660156 1.722656 22.191406 1.3125 22.578125 0.5625 C 22.929688 -0.0703125 22.9375 -1.007812 22.59375 -2.25 C 22.476562 -2.6875 22.160156 -3.035156 21.640625 -3.296875 C 21.378906 -3.421875 21.109375 -3.503906 20.828125 -3.546875 L 9.84375 -3.546875 C 9.238281 -3.546875 8.921875 -3.554688 8.890625 -3.578125 C 8.765625 -3.597656 8.648438 -3.695312 8.546875 -3.875 C 8.515625 -3.96875 8.5 -4.242188 8.5 -4.703125 C 8.5 -5.171875 8.488281 -5.4375 8.46875 -5.5 C 8.320312 -5.613281 8.148438 -5.679688 7.953125 -5.703125 C 7.078125 -5.878906 6.4375 -6.5 6.03125 -7.5625 C 5.707031 -8.363281 5.675781 -9.351562 5.9375 -10.53125 C 6.300781 -11.789062 7.101562 -12.519531 8.34375 -12.71875 C 8.5 -12.882812 8.550781 -13.175781 8.5 -13.59375 C 8.457031 -14.019531 8.492188 -14.320312 8.609375 -14.5 C 8.847656 -14.71875 9.269531 -14.785156 9.875 -14.703125 L 20.921875 -14.703125 C 21.578125 -14.785156 22.117188 -15.195312 22.546875 -15.9375 C 22.859375 -16.71875 22.894531 -17.578125 22.65625 -18.515625 C 22.394531 -19.359375 21.796875 -19.847656 20.859375 -19.984375 Z M 8.796875 -11.734375 L 8.046875 -11.5625 C 7.660156 -11.394531 7.3125 -11.050781 7 -10.53125 C 6.769531 -10.113281 6.6875 -9.578125 6.75 -8.921875 C 6.8125 -8.472656 6.898438 -8.070312 7.015625 -7.71875 C 7.296875 -7.113281 7.859375 -6.734375 8.703125 -6.578125 L 18.734375 -6.578125 C 19.546875 -6.796875 20.066406 -7.203125 20.296875 -7.796875 C 20.628906 -8.546875 20.644531 -9.421875 20.34375 -10.421875 C 20.1875 -10.878906 19.878906 -11.25 19.421875 -11.53125 C 19.179688 -11.601562 18.941406 -11.671875 18.703125 -11.734375 Z M 8.796875 -11.734375 "/></g></g></g><g fill="#00c2cb" fill-opacity="1"><g transform="translate(146.305453, 252.343022)"><g><path d="M 4.53125 -20.703125 C 5.09375 -21.003906 5.765625 -21.21875 6.546875 -21.34375 L 16 -21.34375 C 16.738281 -21.28125 17.539062 -21.117188 18.40625 -20.859375 C 20.34375 -20.253906 21.859375 -18.984375 22.953125 -17.046875 C 24.035156 -14.523438 24.117188 -12.035156 23.203125 -9.578125 C 22.617188 -8.054688 21.554688 -6.851562 20.015625 -5.96875 C 19.535156 -5.726562 19.296875 -5.585938 19.296875 -5.546875 C 19.597656 -5.210938 20.207031 -4.953125 21.125 -4.765625 C 21.664062 -4.710938 22.269531 -4.515625 22.9375 -4.171875 C 23.375 -3.867188 23.691406 -3.5 23.890625 -3.0625 C 24.492188 -1.914062 24.582031 -0.59375 24.15625 0.90625 C 23.9375 1.757812 23.359375 2.507812 22.421875 3.15625 C 21.503906 3.59375 20.800781 3.769531 20.3125 3.6875 C 18.457031 3.488281 16.859375 2.988281 15.515625 2.1875 C 13.296875 0.882812 11.785156 -0.929688 10.984375 -3.265625 C 10.898438 -3.453125 10.8125 -3.632812 10.71875 -3.8125 C 10.28125 -4.25 10.0625 -4.207031 10.0625 -3.6875 L 10.0625 0.1875 C 9.9375 1.039062 9.613281 1.769531 9.09375 2.375 C 8.71875 2.8125 8.285156 3.117188 7.796875 3.296875 C 5.722656 4.003906 3.953125 3.734375 2.484375 2.484375 C 1.960938 1.984375 1.613281 1.195312 1.4375 0.125 L 1.4375 -16.421875 C 1.519531 -17.203125 1.832031 -18 2.375 -18.8125 C 2.945312 -19.632812 3.664062 -20.265625 4.53125 -20.703125 Z M 6.71875 -19.984375 C 6.238281 -19.941406 5.738281 -19.800781 5.21875 -19.5625 C 4.34375 -19.164062 3.65625 -18.488281 3.15625 -17.53125 C 2.96875 -17.125 2.835938 -16.691406 2.765625 -16.234375 L 2.765625 -0.03125 C 2.921875 0.707031 3.117188 1.207031 3.359375 1.46875 C 3.503906 1.644531 3.707031 1.796875 3.96875 1.921875 C 4.96875 2.335938 5.90625 2.4375 6.78125 2.21875 C 8.019531 1.84375 8.679688 1.09375 8.765625 -0.03125 L 8.765625 -4.015625 C 8.765625 -4.503906 8.753906 -4.773438 8.734375 -4.828125 C 8.671875 -4.953125 8.507812 -5.050781 8.25 -5.125 C 7.175781 -5.53125 6.566406 -6.210938 6.421875 -7.171875 C 6.140625 -8.472656 6.160156 -9.632812 6.484375 -10.65625 C 6.878906 -11.550781 7.46875 -12.070312 8.25 -12.21875 C 8.46875 -12.175781 8.628906 -12.253906 8.734375 -12.453125 C 8.753906 -12.535156 8.765625 -12.816406 8.765625 -13.296875 L 8.765625 -14.25 C 8.804688 -14.457031 8.925781 -14.609375 9.125 -14.703125 C 9.207031 -14.722656 9.546875 -14.734375 10.140625 -14.734375 L 15.0625 -14.734375 C 15.507812 -14.671875 15.910156 -14.429688 16.265625 -14.015625 C 16.890625 -13.097656 16.757812 -12.296875 15.875 -11.609375 C 15.632812 -11.453125 15.363281 -11.351562 15.0625 -11.3125 L 9.03125 -11.3125 L 8.4375 -11.171875 C 7.976562 -11.003906 7.65625 -10.671875 7.46875 -10.171875 C 7.113281 -9.015625 7.15625 -7.9375 7.59375 -6.9375 C 7.894531 -6.414062 8.253906 -6.132812 8.671875 -6.09375 C 9.078125 -6.007812 9.476562 -5.945312 9.875 -5.90625 C 10.550781 -5.832031 11.128906 -5.472656 11.609375 -4.828125 C 11.835938 -4.523438 12.050781 -4.125 12.25 -3.625 C 12.726562 -1.988281 13.9375 -0.5 15.875 0.84375 C 17.15625 1.625 18.554688 2.125 20.078125 2.34375 C 20.753906 2.457031 21.445312 2.242188 22.15625 1.703125 C 22.894531 0.867188 23.203125 -0.1875 23.078125 -1.46875 C 22.941406 -2.488281 22.382812 -3.117188 21.40625 -3.359375 C 20.84375 -3.460938 20.441406 -3.550781 20.203125 -3.625 C 18.816406 -4.050781 17.804688 -4.820312 17.171875 -5.9375 C 16.984375 -6.34375 16.78125 -6.742188 16.5625 -7.140625 C 16.207031 -7.785156 15.6875 -8.21875 15 -8.4375 C 14.445312 -8.570312 14.128906 -8.789062 14.046875 -9.09375 C 14.003906 -9.226562 14.070312 -9.367188 14.25 -9.515625 C 14.351562 -9.597656 14.734375 -9.566406 15.390625 -9.421875 C 16.296875 -9.085938 17.019531 -8.390625 17.5625 -7.328125 C 17.800781 -6.867188 18.171875 -6.707031 18.671875 -6.84375 C 19.765625 -7.207031 20.675781 -7.90625 21.40625 -8.9375 C 22.425781 -10.664062 22.773438 -12.398438 22.453125 -14.140625 C 22.285156 -15.117188 22.035156 -15.914062 21.703125 -16.53125 C 20.503906 -18.4375 18.960938 -19.539062 17.078125 -19.84375 C 16.679688 -19.894531 16.257812 -19.941406 15.8125 -19.984375 Z M 15.1875 -13.265625 C 14.96875 -13.367188 14.6875 -13.421875 14.34375 -13.421875 L 11.015625 -13.421875 C 10.535156 -13.421875 10.265625 -13.410156 10.203125 -13.390625 C 10.109375 -13.304688 10.0625 -13.179688 10.0625 -13.015625 C 10.0625 -12.859375 10.140625 -12.742188 10.296875 -12.671875 C 10.335938 -12.648438 10.597656 -12.640625 11.078125 -12.640625 L 14.234375 -12.640625 C 14.710938 -12.640625 15 -12.660156 15.09375 -12.703125 C 15.375 -12.816406 15.40625 -13.003906 15.1875 -13.265625 Z M 15.1875 -13.265625 "/></g></g></g><g fill="#00c2cb" fill-opacity="1"><g transform="translate(178.130801, 252.343022)"><g><path d="M 3.0625 -21.875 C 4.53125 -22.414062 5.972656 -22.226562 7.390625 -21.3125 C 7.828125 -20.988281 8.195312 -20.628906 8.5 -20.234375 C 8.976562 -19.472656 9.160156 -18.640625 9.046875 -17.734375 C 8.765625 -16.035156 8.0625 -14.425781 6.9375 -12.90625 C 6.09375 -11.96875 5.203125 -11.707031 4.265625 -12.125 C 3.347656 -12.644531 2.804688 -13.351562 2.640625 -14.25 C 2.640625 -14.65625 2.632812 -14.878906 2.625 -14.921875 C 2.601562 -15.035156 2.453125 -15.191406 2.171875 -15.390625 C 1.722656 -15.753906 1.378906 -16.132812 1.140625 -16.53125 C 0.765625 -17.351562 0.65625 -18.21875 0.8125 -19.125 C 0.914062 -19.800781 1.195312 -20.410156 1.65625 -20.953125 C 1.976562 -21.410156 2.445312 -21.71875 3.0625 -21.875 Z M 4.03125 -20.796875 C 2.488281 -20.515625 1.804688 -19.523438 1.984375 -17.828125 C 2.023438 -17.453125 2.21875 -17.09375 2.5625 -16.75 C 3.039062 -16.40625 3.300781 -16.234375 3.34375 -16.234375 C 3.394531 -16.253906 3.460938 -16.316406 3.546875 -16.421875 C 3.671875 -16.679688 3.851562 -16.820312 4.09375 -16.84375 C 4.164062 -16.863281 4.273438 -16.800781 4.421875 -16.65625 C 4.554688 -16.375 4.457031 -15.984375 4.125 -15.484375 C 4.019531 -15.285156 3.945312 -15.085938 3.90625 -14.890625 C 3.726562 -14.410156 3.945312 -13.929688 4.5625 -13.453125 C 5.34375 -12.984375 6.101562 -13.5 6.84375 -15 C 7.625 -16.507812 7.957031 -17.710938 7.84375 -18.609375 C 7.757812 -19.242188 7.359375 -19.796875 6.640625 -20.265625 C 5.835938 -20.765625 4.96875 -20.941406 4.03125 -20.796875 Z M 4.03125 -20.796875 "/></g></g></g><g fill="#00c2cb" fill-opacity="1"><g transform="translate(193.629619, 252.343022)"><g><path d="M 11.046875 -22.125 L 13.390625 -22.125 L 14.59375 -22.03125 C 16.507812 -21.96875 18.507812 -21.21875 20.59375 -19.78125 C 22.269531 -18.476562 23.300781 -16.894531 23.6875 -15.03125 C 23.925781 -13.875 23.914062 -12.984375 23.65625 -12.359375 C 23.59375 -12.085938 23.421875 -11.789062 23.140625 -11.46875 C 22.660156 -11.007812 22.421875 -10.75 22.421875 -10.6875 C 22.503906 -10.488281 22.742188 -10.21875 23.140625 -9.875 C 23.984375 -8.8125 24.472656 -7.609375 24.609375 -6.265625 C 24.867188 -4.429688 24.359375 -2.59375 23.078125 -0.75 C 22.421875 0.125 21.671875 0.796875 20.828125 1.265625 C 18.910156 2.441406 16.867188 3.097656 14.703125 3.234375 L 12.515625 3.234375 C 10.773438 3.117188 9.175781 2.820312 7.71875 2.34375 C 6.976562 2.101562 6.175781 1.734375 5.3125 1.234375 C 4.414062 0.691406 3.632812 -0.03125 2.96875 -0.9375 C 2.03125 -2.332031 1.53125 -3.910156 1.46875 -5.671875 C 1.394531 -6.628906 1.585938 -7.609375 2.046875 -8.609375 C 2.304688 -9.085938 2.65625 -9.476562 3.09375 -9.78125 C 3.351562 -9.976562 3.375 -10.207031 3.15625 -10.46875 C 2.007812 -12.351562 1.75 -14.242188 2.375 -16.140625 C 2.8125 -17.585938 3.710938 -18.84375 5.078125 -19.90625 C 6.773438 -21.125 8.375 -21.8125 9.875 -21.96875 C 10.257812 -22.03125 10.648438 -22.082031 11.046875 -22.125 Z M 13.234375 -20.828125 C 11.734375 -20.910156 10.222656 -20.75 8.703125 -20.34375 C 5.722656 -19.269531 3.984375 -17.488281 3.484375 -15 C 3.179688 -13.726562 3.503906 -12.390625 4.453125 -10.984375 C 4.804688 -10.503906 5.15625 -10.285156 5.5 -10.328125 C 6.675781 -10.421875 7.734375 -10.226562 8.671875 -9.75 C 9.410156 -9.25 9.78125 -8.679688 9.78125 -8.046875 C 9.90625 -7.804688 10.085938 -7.6875 10.328125 -7.6875 C 11.847656 -7.300781 13.445312 -7.007812 15.125 -6.8125 C 15.851562 -6.75 16.445312 -6.46875 16.90625 -5.96875 C 17.320312 -5.1875 17.097656 -4.523438 16.234375 -3.984375 C 14.921875 -3.453125 13.332031 -3.40625 11.46875 -3.84375 C 10.8125 -4 10.210938 -4.269531 9.671875 -4.65625 C 9.046875 -5.414062 8.773438 -6.242188 8.859375 -7.140625 C 8.921875 -7.335938 8.910156 -7.539062 8.828125 -7.75 C 8.722656 -8.144531 8.5625 -8.441406 8.34375 -8.640625 C 7.320312 -9.328125 6.203125 -9.5 4.984375 -9.15625 C 4.304688 -9.070312 3.726562 -8.710938 3.25 -8.078125 C 2.882812 -7.492188 2.753906 -6.492188 2.859375 -5.078125 C 2.929688 -4.253906 3.117188 -3.453125 3.421875 -2.671875 C 3.828125 -1.785156 4.53125 -0.984375 5.53125 -0.265625 C 7.664062 1.066406 9.957031 1.796875 12.40625 1.921875 L 14.59375 1.921875 C 16.25 1.796875 17.847656 1.34375 19.390625 0.5625 C 22.472656 -1.175781 23.753906 -3.566406 23.234375 -6.609375 C 23.054688 -7.566406 22.695312 -8.363281 22.15625 -9 C 21.769531 -9.445312 21.378906 -9.789062 20.984375 -10.03125 C 20.640625 -10.289062 20.335938 -10.390625 20.078125 -10.328125 C 19.140625 -10.066406 18.171875 -10.15625 17.171875 -10.59375 C 16.972656 -10.695312 16.691406 -10.90625 16.328125 -11.21875 C 16.085938 -11.582031 15.726562 -11.804688 15.25 -11.890625 C 14.144531 -12.109375 13.046875 -12.296875 11.953125 -12.453125 C 11.453125 -12.515625 11.050781 -12.65625 10.75 -12.875 C 10.382812 -13.15625 10.191406 -13.445312 10.171875 -13.75 C 10.097656 -14.363281 10.390625 -14.863281 11.046875 -15.25 C 12.691406 -16.007812 14.265625 -15.796875 15.765625 -14.609375 C 16.160156 -14.191406 16.488281 -13.59375 16.75 -12.8125 C 16.789062 -12.476562 16.921875 -12.179688 17.140625 -11.921875 C 17.378906 -11.617188 17.769531 -11.394531 18.3125 -11.25 C 19.195312 -11.09375 20.15625 -11.234375 21.1875 -11.671875 C 21.988281 -12.015625 22.429688 -12.515625 22.515625 -13.171875 C 22.628906 -14.316406 22.28125 -15.578125 21.46875 -16.953125 C 20.800781 -17.921875 20.066406 -18.625 19.265625 -19.0625 C 17.691406 -20.101562 16.09375 -20.660156 14.46875 -20.734375 Z M 14.5 -13.921875 C 13.820312 -14.347656 13.019531 -14.453125 12.09375 -14.234375 L 11.921875 -14.203125 C 11.835938 -14.160156 11.765625 -14.109375 11.703125 -14.046875 C 11.609375 -13.960938 11.789062 -13.875 12.25 -13.78125 L 14.328125 -13.453125 C 14.804688 -13.367188 15.023438 -13.367188 14.984375 -13.453125 C 14.921875 -13.585938 14.757812 -13.742188 14.5 -13.921875 Z M 14.984375 -5.5 C 13.617188 -5.675781 12.296875 -5.894531 11.015625 -6.15625 C 10.535156 -6.21875 10.304688 -6.175781 10.328125 -6.03125 C 10.390625 -5.914062 10.457031 -5.796875 10.53125 -5.671875 C 10.675781 -5.492188 10.921875 -5.363281 11.265625 -5.28125 C 12.546875 -4.863281 13.785156 -4.765625 14.984375 -4.984375 C 15.503906 -5.140625 15.503906 -5.3125 14.984375 -5.5 Z M 14.984375 -5.5 "/></g></g></g><g fill="#00c2cb" fill-opacity="1"><g transform="translate(238.946548, 252.34179)"><g><path d="M 1.1875 -19.65625 C 1.875 -20.695312 2.75 -21.265625 3.8125 -21.359375 L 18.015625 -21.359375 C 18.796875 -21.316406 19.585938 -20.859375 20.390625 -19.984375 C 21.367188 -18.515625 21.539062 -16.910156 20.90625 -15.171875 C 20.6875 -14.472656 20.15625 -13.671875 19.3125 -12.765625 C 17.164062 -10.546875 15.0625 -8.332031 13 -6.125 C 12.582031 -5.625 12.632812 -5.375 13.15625 -5.375 L 18.265625 -5.375 C 18.660156 -5.3125 19.0625 -5.222656 19.46875 -5.109375 C 20.488281 -4.628906 21.140625 -3.914062 21.421875 -2.96875 C 21.660156 -2.113281 21.726562 -1.285156 21.625 -0.484375 C 21.539062 0.960938 20.789062 2.046875 19.375 2.765625 C 19.113281 2.878906 18.8125 2.957031 18.46875 3 L 4.109375 3 C 2.984375 2.863281 2.050781 2.320312 1.3125 1.375 C 0.4375 0.113281 0.0859375 -1.285156 0.265625 -2.828125 C 0.328125 -4.109375 1.007812 -5.335938 2.3125 -6.515625 C 4.007812 -8.398438 5.75 -10.285156 7.53125 -12.171875 C 7.9375 -12.671875 7.894531 -12.921875 7.40625 -12.921875 L 4.109375 -12.921875 L 2.90625 -13.1875 C 2.53125 -13.289062 2.085938 -13.613281 1.578125 -14.15625 C 1.046875 -14.832031 0.707031 -15.648438 0.5625 -16.609375 C 0.457031 -17.609375 0.664062 -18.625 1.1875 -19.65625 Z M 3.984375 -20.015625 C 3.671875 -19.953125 3.410156 -19.878906 3.203125 -19.796875 C 2.679688 -19.535156 2.351562 -19.195312 2.21875 -18.78125 C 1.894531 -17.894531 1.8125 -17.019531 1.96875 -16.15625 C 2.15625 -15.195312 2.757812 -14.585938 3.78125 -14.328125 L 4.109375 -14.265625 L 8.890625 -14.265625 C 9.367188 -14.265625 9.707031 -14.316406 9.90625 -14.421875 C 10.0625 -14.546875 10.242188 -14.707031 10.453125 -14.90625 C 10.953125 -15.519531 11.472656 -16.117188 12.015625 -16.703125 C 12.328125 -16.984375 12.609375 -16.992188 12.859375 -16.734375 C 13.015625 -16.429688 12.800781 -16.007812 12.21875 -15.46875 C 9.15625 -12.03125 5.878906 -8.425781 2.390625 -4.65625 C 1.585938 -3.675781 1.328125 -2.503906 1.609375 -1.140625 C 1.671875 -0.679688 1.789062 -0.28125 1.96875 0.0625 C 2.59375 1.0625 3.328125 1.613281 4.171875 1.71875 L 18.203125 1.71875 C 19.203125 1.613281 19.875 1.03125 20.21875 -0.03125 C 20.351562 -0.488281 20.378906 -1.085938 20.296875 -1.828125 C 20.265625 -2.328125 20.144531 -2.726562 19.9375 -3.03125 C 19.71875 -3.414062 19.445312 -3.664062 19.125 -3.78125 C 18.84375 -3.882812 18.492188 -3.988281 18.078125 -4.09375 L 11.703125 -4.09375 C 11.222656 -4.09375 10.882812 -4.039062 10.6875 -3.9375 C 10.289062 -3.65625 9.84375 -3.1875 9.34375 -2.53125 C 9.09375 -2.144531 8.800781 -1.960938 8.46875 -1.984375 C 8.269531 -2.003906 8.128906 -2.164062 8.046875 -2.46875 C 8.023438 -2.625 8.125 -2.820312 8.34375 -3.0625 C 11.351562 -6.269531 14.390625 -9.484375 17.453125 -12.703125 C 18.515625 -13.722656 19.210938 -14.578125 19.546875 -15.265625 C 20.171875 -16.523438 20.148438 -17.726562 19.484375 -18.875 C 19.109375 -19.53125 18.570312 -19.910156 17.875 -20.015625 Z M 3.984375 -20.015625 "/></g></g></g><g fill="#00c2cb" fill-opacity="1"><g transform="translate(260.915335, 252.34179)"><g><path d="M 12.140625 -21.84375 C 13.203125 -22.257812 14.625 -22.289062 16.40625 -21.9375 C 18.320312 -21.550781 19.925781 -20.898438 21.21875 -19.984375 C 22.4375 -19.054688 23.445312 -17.929688 24.25 -16.609375 C 25.25 -14.953125 25.804688 -12.984375 25.921875 -10.703125 L 25.921875 -8.765625 C 25.785156 -6.929688 25.425781 -5.332031 24.84375 -3.96875 C 24.082031 -2.125 22.800781 -0.488281 21 0.9375 C 19.5625 1.851562 17.957031 2.503906 16.1875 2.890625 C 13.507812 3.566406 10.726562 3.316406 7.84375 2.140625 C 5.65625 1.273438 3.832031 -0.316406 2.375 -2.640625 C 1.394531 -4.546875 0.84375 -6.582031 0.71875 -8.75 L 0.71875 -10.25 C 0.78125 -12.851562 1.601562 -15.253906 3.1875 -17.453125 C 3.820312 -18.335938 4.648438 -19.171875 5.671875 -19.953125 C 7.703125 -21.328125 9.640625 -21.867188 11.484375 -21.578125 C 11.703125 -21.578125 11.921875 -21.664062 12.140625 -21.84375 Z M 13.484375 -20.84375 C 12.910156 -20.769531 12.398438 -20.507812 11.953125 -20.0625 C 11.640625 -19.769531 11.441406 -19.375 11.359375 -18.875 C 11.078125 -17.664062 11.164062 -16.648438 11.625 -15.828125 C 12.007812 -15.390625 12.398438 -15.117188 12.796875 -15.015625 C 13.078125 -14.941406 13.476562 -14.875 14 -14.8125 C 15.363281 -14.65625 16.40625 -14.195312 17.125 -13.4375 C 17.769531 -12.59375 18.148438 -11.789062 18.265625 -11.03125 C 18.421875 -10.34375 18.429688 -9.347656 18.296875 -8.046875 C 18.117188 -6.648438 17.285156 -5.59375 15.796875 -4.875 C 14.460938 -4.289062 13.050781 -4.1875 11.5625 -4.5625 C 10.6875 -4.78125 9.9375 -5.351562 9.3125 -6.28125 C 8.289062 -8 8.160156 -9.8125 8.921875 -11.71875 C 9.304688 -12.582031 9.804688 -13.3125 10.421875 -13.90625 C 10.878906 -14.3125 11.109375 -14.546875 11.109375 -14.609375 C 11.078125 -14.722656 10.96875 -14.890625 10.78125 -15.109375 C 10.0625 -16.472656 9.953125 -17.9375 10.453125 -19.5 C 10.597656 -19.976562 10.640625 -20.238281 10.578125 -20.28125 C 10.515625 -20.300781 10.382812 -20.320312 10.1875 -20.34375 C 8.125 -20.195312 6.160156 -19.003906 4.296875 -16.765625 C 3.148438 -15.160156 2.457031 -13.554688 2.21875 -11.953125 C 1.78125 -9.453125 2.039062 -6.921875 3 -4.359375 C 3.738281 -2.492188 5.03125 -0.988281 6.875 0.15625 C 10.707031 2.332031 14.6875 2.5 18.8125 0.65625 C 20.289062 -0.0390625 21.507812 -1.0625 22.46875 -2.40625 C 23.507812 -3.863281 24.160156 -5.460938 24.421875 -7.203125 C 24.890625 -10.085938 24.582031 -12.785156 23.5 -15.296875 C 22.457031 -17.234375 21.101562 -18.65625 19.4375 -19.5625 C 17.59375 -20.4375 15.609375 -20.863281 13.484375 -20.84375 Z M 12.796875 -13.640625 C 12.597656 -13.765625 12.28125 -13.664062 11.84375 -13.34375 C 10.59375 -12.320312 9.898438 -11.160156 9.765625 -9.859375 C 9.660156 -8.796875 9.910156 -7.800781 10.515625 -6.875 C 10.796875 -6.4375 11.164062 -6.140625 11.625 -5.984375 C 13.03125 -5.492188 14.34375 -5.582031 15.5625 -6.25 C 16.425781 -6.789062 16.894531 -7.429688 16.96875 -8.171875 C 17.132812 -9.367188 17.117188 -10.269531 16.921875 -10.875 C 16.734375 -11.78125 16.257812 -12.503906 15.5 -13.046875 C 15.195312 -13.203125 14.796875 -13.332031 14.296875 -13.4375 Z M 12.796875 -13.640625 "/></g></g></g><g fill="#00c2cb" fill-opacity="1"><g transform="translate(288.106212, 252.34179)"><g><path d="M 4.84375 -22.046875 C 7.0625 -22.492188 8.984375 -21.722656 10.609375 -19.734375 C 10.890625 -19.421875 11.171875 -19.019531 11.453125 -18.53125 C 12.472656 -16.894531 13.53125 -15.234375 14.625 -13.546875 C 14.96875 -13.046875 15.140625 -13.035156 15.140625 -13.515625 L 15.140625 -18.53125 C 15.222656 -19.414062 15.570312 -20.21875 16.1875 -20.9375 C 17.375 -21.90625 18.6875 -22.296875 20.125 -22.109375 C 22.25 -21.929688 23.472656 -20.75 23.796875 -18.5625 L 23.796875 -0.8125 C 23.691406 0.550781 23.019531 1.722656 21.78125 2.703125 C 20.882812 3.304688 19.921875 3.640625 18.890625 3.703125 C 17.515625 3.710938 16.375 3.398438 15.46875 2.765625 C 14.488281 2.046875 13.78125 1.253906 13.34375 0.390625 C 12.457031 -1.066406 11.554688 -2.539062 10.640625 -4.03125 C 10.316406 -4.53125 10.144531 -4.539062 10.125 -4.0625 L 10.125 0.15625 C 9.988281 1.613281 9.21875 2.671875 7.8125 3.328125 C 6.789062 3.773438 5.78125 3.878906 4.78125 3.640625 C 3.78125 3.429688 2.957031 3 2.3125 2.34375 C 1.851562 1.695312 1.5625 0.9375 1.4375 0.0625 L 1.4375 -17.90625 C 1.582031 -18.8125 1.851562 -19.613281 2.25 -20.3125 C 3.03125 -21.289062 3.894531 -21.867188 4.84375 -22.046875 Z M 6.703125 -20.796875 C 5.515625 -21.054688 4.453125 -20.722656 3.515625 -19.796875 C 3.117188 -19.273438 2.867188 -18.613281 2.765625 -17.8125 L 2.765625 -0.0625 C 2.867188 0.476562 2.988281 0.878906 3.125 1.140625 C 3.425781 1.640625 3.785156 1.960938 4.203125 2.109375 C 4.648438 2.265625 5.0625 2.363281 5.4375 2.40625 C 6.082031 2.46875 6.664062 2.382812 7.1875 2.15625 C 7.582031 2.039062 7.953125 1.78125 8.296875 1.375 C 8.554688 1.0625 8.734375 0.59375 8.828125 -0.03125 L 8.828125 -6.671875 C 8.828125 -7.148438 8.800781 -7.488281 8.75 -7.6875 C 8.644531 -7.882812 8.519531 -8.085938 8.375 -8.296875 C 7.59375 -9.492188 6.832031 -10.691406 6.09375 -11.890625 C 5.894531 -12.273438 5.90625 -12.535156 6.125 -12.671875 C 6.34375 -12.835938 6.570312 -12.757812 6.8125 -12.4375 C 9.15625 -8.894531 11.679688 -4.890625 14.390625 -0.421875 C 15.304688 1.117188 16.390625 2.007812 17.640625 2.25 C 18.597656 2.488281 19.535156 2.367188 20.453125 1.890625 C 21.742188 1.171875 22.425781 0.25 22.5 -0.875 L 22.5 -18.390625 C 22.457031 -18.785156 22.335938 -19.1875 22.140625 -19.59375 C 21.898438 -20.03125 21.539062 -20.347656 21.0625 -20.546875 C 20.21875 -20.828125 19.382812 -20.898438 18.5625 -20.765625 C 17.300781 -20.398438 16.601562 -19.675781 16.46875 -18.59375 L 16.46875 -11.09375 C 16.46875 -10.601562 16.503906 -10.257812 16.578125 -10.0625 L 18.71875 -6.453125 C 18.894531 -6.210938 19.003906 -5.960938 19.046875 -5.703125 C 19.066406 -5.585938 19.007812 -5.46875 18.875 -5.34375 C 18.488281 -5.164062 18.113281 -5.425781 17.75 -6.125 C 15.570312 -9.675781 13.03125 -13.679688 10.125 -18.140625 C 9.125 -19.679688 7.984375 -20.566406 6.703125 -20.796875 Z M 6.703125 -20.796875 "/></g></g></g><g fill="#00c2cb" fill-opacity="1"><g transform="translate(313.916536, 252.34179)"><g><path d="M 2.609375 -19.171875 C 3.710938 -20.453125 5.078125 -21.179688 6.703125 -21.359375 L 20.96875 -21.359375 C 21.375 -21.296875 21.773438 -21.175781 22.171875 -21 C 23.109375 -20.5625 23.691406 -19.859375 23.921875 -18.890625 C 24.140625 -18.128906 24.1875 -17.347656 24.0625 -16.546875 C 23.800781 -14.734375 22.78125 -13.6875 21 -13.40625 L 10.78125 -13.40625 C 10.300781 -13.40625 10.019531 -13.394531 9.9375 -13.375 C 9.800781 -13.3125 9.800781 -13.207031 9.9375 -13.0625 C 9.976562 -13.050781 10.238281 -13.046875 10.71875 -13.046875 L 18.875 -13.046875 C 19.75 -12.984375 20.519531 -12.53125 21.1875 -11.6875 C 21.925781 -10.425781 22.101562 -9.101562 21.71875 -7.71875 C 21.195312 -6.257812 20.207031 -5.429688 18.75 -5.234375 L 10.71875 -5.234375 C 10.238281 -5.234375 9.972656 -5.222656 9.921875 -5.203125 C 9.796875 -5.078125 9.796875 -4.984375 9.921875 -4.921875 C 9.972656 -4.890625 10.238281 -4.875 10.71875 -4.875 L 20.96875 -4.875 C 21.988281 -4.75 22.78125 -4.347656 23.34375 -3.671875 C 24.226562 -2.265625 24.410156 -0.738281 23.890625 0.90625 C 23.765625 1.257812 23.539062 1.640625 23.21875 2.046875 C 22.675781 2.628906 21.925781 3 20.96875 3.15625 L 7.03125 3.15625 C 6.09375 3.050781 5.289062 2.8125 4.625 2.4375 C 3.75 2.007812 2.957031 1.265625 2.25 0.203125 C 1.851562 -0.554688 1.582031 -1.585938 1.4375 -2.890625 L 1.4375 -15.5625 C 1.582031 -16.988281 1.972656 -18.191406 2.609375 -19.171875 Z M 6.90625 -20.015625 C 6.425781 -19.953125 5.9375 -19.832031 5.4375 -19.65625 C 4.019531 -19.09375 3.1875 -18.054688 2.9375 -16.546875 C 2.863281 -16.191406 2.804688 -15.820312 2.765625 -15.4375 L 2.765625 -3.0625 L 2.921875 -1.859375 C 3.421875 0.222656 4.75 1.441406 6.90625 1.796875 L 21 1.796875 C 21.675781 1.722656 22.207031 1.316406 22.59375 0.578125 C 22.957031 -0.0664062 22.96875 -1.007812 22.625 -2.25 C 22.5 -2.695312 22.175781 -3.050781 21.65625 -3.3125 C 21.394531 -3.425781 21.125 -3.503906 20.84375 -3.546875 L 9.859375 -3.546875 C 9.253906 -3.546875 8.929688 -3.554688 8.890625 -3.578125 C 8.773438 -3.597656 8.664062 -3.695312 8.5625 -3.875 C 8.519531 -3.976562 8.5 -4.257812 8.5 -4.71875 C 8.5 -5.175781 8.488281 -5.4375 8.46875 -5.5 C 8.332031 -5.613281 8.164062 -5.679688 7.96875 -5.703125 C 7.082031 -5.890625 6.4375 -6.515625 6.03125 -7.578125 C 5.71875 -8.367188 5.691406 -9.359375 5.953125 -10.546875 C 6.304688 -11.804688 7.109375 -12.535156 8.359375 -12.734375 C 8.515625 -12.898438 8.5625 -13.191406 8.5 -13.609375 C 8.457031 -14.023438 8.5 -14.328125 8.625 -14.515625 C 8.863281 -14.734375 9.285156 -14.800781 9.890625 -14.71875 L 20.9375 -14.71875 C 21.601562 -14.800781 22.144531 -15.210938 22.5625 -15.953125 C 22.882812 -16.734375 22.925781 -17.59375 22.6875 -18.53125 C 22.425781 -19.375 21.820312 -19.867188 20.875 -20.015625 Z M 8.796875 -11.75 L 8.046875 -11.5625 C 7.671875 -11.40625 7.320312 -11.066406 7 -10.546875 C 6.78125 -10.128906 6.703125 -9.585938 6.765625 -8.921875 C 6.816406 -8.484375 6.90625 -8.082031 7.03125 -7.71875 C 7.3125 -7.113281 7.875 -6.734375 8.71875 -6.578125 L 18.75 -6.578125 C 19.570312 -6.796875 20.09375 -7.207031 20.3125 -7.8125 C 20.65625 -8.550781 20.675781 -9.421875 20.375 -10.421875 C 20.207031 -10.878906 19.894531 -11.25 19.4375 -11.53125 C 19.195312 -11.613281 18.957031 -11.6875 18.71875 -11.75 Z M 8.796875 -11.75 "/></g></g></g><g fill="#00c2cb" fill-opacity="1"><g transform="translate(19.029591, 294.777608)"><g><path d="M 14.140625 -26.890625 C 17.554688 -27.578125 20.210938 -27.148438 22.109375 -25.609375 C 23.015625 -24.867188 23.613281 -23.796875 23.90625 -22.390625 C 24.207031 -20.992188 24.050781 -19.429688 23.4375 -17.703125 C 23.175781 -16.890625 22.722656 -16.28125 22.078125 -15.875 C 21.429688 -15.476562 20.769531 -15.25 20.09375 -15.1875 C 19.425781 -15.125 18.816406 -15.207031 18.265625 -15.4375 C 17.722656 -15.664062 17.425781 -15.992188 17.375 -16.421875 L 17.0625 -17.125 C 16.488281 -17.976562 15.5 -18.085938 14.09375 -17.453125 C 12.882812 -16.898438 11.675781 -15.945312 10.46875 -14.59375 C 9.1875 -13.144531 8.351562 -11.84375 7.96875 -10.6875 C 7.539062 -9.40625 7.328125 -8.5625 7.328125 -8.15625 C 7.285156 -7.25 7.609375 -6.441406 8.296875 -5.734375 C 9.296875 -5.085938 10.289062 -4.796875 11.28125 -4.859375 C 12.28125 -4.921875 13.171875 -5.144531 13.953125 -5.53125 C 14.742188 -5.925781 15.382812 -6.375 15.875 -6.875 C 16.375 -7.375 16.625 -7.726562 16.625 -7.9375 C 16.695312 -8.082031 16.769531 -8.222656 16.84375 -8.359375 C 16.914062 -8.503906 16.972656 -8.648438 17.015625 -8.796875 C 16.921875 -8.796875 16.945312 -8.800781 17.09375 -8.8125 C 17.238281 -8.820312 17.273438 -8.820312 17.203125 -8.8125 C 17.128906 -8.800781 17.164062 -8.785156 17.3125 -8.765625 L 17.515625 -8.6875 C 16.359375 -7.644531 15.234375 -7.429688 14.140625 -8.046875 C 13.710938 -8.304688 13.332031 -8.582031 13 -8.875 C 12.664062 -9.175781 12.359375 -9.316406 12.078125 -9.296875 C 11.546875 -9.578125 11.425781 -10.132812 11.71875 -10.96875 C 11.832031 -11.300781 12.050781 -11.613281 12.375 -11.90625 C 12.695312 -12.207031 13.109375 -12.414062 13.609375 -12.53125 C 15.972656 -13.550781 18.164062 -13.789062 20.1875 -13.25 C 21.09375 -13.007812 21.71875 -12.523438 22.0625 -11.796875 C 22.40625 -11.078125 22.550781 -10.265625 22.5 -9.359375 C 22.457031 -8.460938 22.265625 -7.550781 21.921875 -6.625 C 21.578125 -5.695312 21.203125 -4.953125 20.796875 -4.390625 C 20.390625 -3.835938 19.820312 -3.179688 19.09375 -2.421875 C 18.375 -1.660156 17.46875 -0.925781 16.375 -0.21875 C 13.695312 1.519531 10.828125 2.351562 7.765625 2.28125 C 3.328125 2.207031 0.703125 0.390625 -0.109375 -3.171875 C -0.367188 -4.304688 -0.488281 -5.585938 -0.46875 -7.015625 C -0.226562 -11.148438 1.003906 -15.007812 3.234375 -18.59375 C 4.304688 -20.300781 5.742188 -21.984375 7.546875 -23.640625 C 8.691406 -24.660156 9.972656 -25.445312 11.390625 -26 C 12.148438 -26.300781 13.066406 -26.597656 14.140625 -26.890625 Z M 14.140625 -26.890625 "/></g></g></g><g fill="#00c2cb" fill-opacity="1"><g transform="translate(41.762262, 294.777608)"><g><path d="M 19.6875 -24.140625 C 20.5 -23.710938 21.007812 -23.082031 21.21875 -22.25 C 20.75 -19.59375 20.320312 -16.953125 19.9375 -14.328125 C 19.5625 -11.703125 19.191406 -9.503906 18.828125 -7.734375 C 18.472656 -5.972656 18.226562 -4.648438 18.09375 -3.765625 C 17.96875 -2.890625 17.820312 -2.015625 17.65625 -1.140625 L 17.453125 -0.390625 C 17.398438 -0.128906 17.347656 0.109375 17.296875 0.328125 C 17.253906 0.554688 17.207031 0.800781 17.15625 1.0625 C 16.5 1.820312 15.597656 2.203125 14.453125 2.203125 C 13.242188 2.203125 12.285156 1.894531 11.578125 1.28125 C 11.148438 0.945312 11.078125 0.25 11.359375 -0.8125 C 11.472656 -1.238281 11.546875 -1.789062 11.578125 -2.46875 C 11.617188 -3.144531 11.664062 -3.710938 11.71875 -4.171875 L 11.71875 -4.234375 C 11 -3.972656 10.351562 -3.632812 9.78125 -3.21875 C 9.21875 -2.800781 8.863281 -2.539062 8.71875 -2.4375 C 8.582031 -2.332031 8.394531 -2.25 8.15625 -2.1875 C 7.914062 -2.125 7.703125 -2.082031 7.515625 -2.0625 C 7.066406 -2.039062 6.757812 -1.972656 6.59375 -1.859375 C 5.207031 0.617188 3.972656 2 2.890625 2.28125 C 2.203125 2.488281 1.507812 2.539062 0.8125 2.4375 C 0.125 2.332031 -0.414062 1.921875 -0.8125 1.203125 C -1.570312 0.492188 -1.382812 -1.445312 -0.25 -4.625 C 0.363281 -6.3125 1.242188 -8.335938 2.390625 -10.703125 C 3.546875 -13.066406 4.660156 -15.125 5.734375 -16.875 C 8.035156 -20.65625 10.5625 -23.835938 13.3125 -26.421875 C 13.769531 -26.609375 14.257812 -26.828125 14.78125 -27.078125 C 15.300781 -27.328125 15.816406 -27.460938 16.328125 -27.484375 C 16.835938 -27.515625 17.363281 -27.457031 17.90625 -27.3125 C 18.457031 -27.164062 18.921875 -26.953125 19.296875 -26.671875 C 20.179688 -26.003906 20.3125 -25.160156 19.6875 -24.140625 Z M 12.078125 -14.78125 C 11.578125 -13.351562 11.078125 -12.039062 10.578125 -10.84375 C 10.078125 -9.644531 9.648438 -8.59375 9.296875 -7.6875 L 12.109375 -7.796875 C 12.296875 -9.316406 12.507812 -10.820312 12.75 -12.3125 C 12.988281 -13.8125 13.210938 -15.3125 13.421875 -16.8125 Z M 11.109375 -7.65625 C 11.441406 -7.65625 11.773438 -7.679688 12.109375 -7.734375 L 12.109375 -7.765625 C 11.796875 -7.742188 11.507812 -7.71875 11.25 -7.6875 C 10.988281 -7.664062 10.941406 -7.65625 11.109375 -7.65625 Z M 11.109375 -7.65625 "/></g></g></g><g fill="#00c2cb" fill-opacity="1"><g transform="translate(61.826781, 294.777608)"><g><path d="M 13.984375 -26 C 14.222656 -25.351562 14.351562 -24.925781 14.375 -24.71875 C 14.425781 -24.257812 14.265625 -23.878906 13.890625 -23.578125 C 13.890625 -23.546875 13.863281 -23.507812 13.8125 -23.46875 C 14.019531 -22.351562 14.066406 -21.304688 13.953125 -20.328125 C 13.835938 -19.359375 13.679688 -18.421875 13.484375 -17.515625 C 14.773438 -19.703125 15.796875 -21.304688 16.546875 -22.328125 C 18.117188 -24.441406 19.582031 -25.945312 20.9375 -26.84375 C 21.382812 -27.101562 21.929688 -27.300781 22.578125 -27.4375 C 23.234375 -27.570312 23.859375 -27.585938 24.453125 -27.484375 C 25.046875 -27.390625 25.539062 -27.148438 25.9375 -26.765625 C 26.332031 -26.390625 26.503906 -25.820312 26.453125 -25.0625 C 25.785156 -20.4375 25.070312 -16.125 24.3125 -12.125 C 23.550781 -8.125 22.566406 -4.304688 21.359375 -0.671875 L 21.359375 -0.609375 L 21.328125 -0.609375 C 21.035156 0.242188 20.320312 0.847656 19.1875 1.203125 C 18.070312 1.535156 17.078125 1.5625 16.203125 1.28125 C 15.128906 0.96875 14.640625 0.398438 14.734375 -0.421875 L 14.78125 -1.25 L 14.78125 -1.3125 C 14.875 -1.882812 14.925781 -2.269531 14.9375 -2.46875 C 14.945312 -2.675781 14.960938 -2.828125 14.984375 -2.921875 C 15.035156 -3.535156 15.132812 -4.109375 15.28125 -4.640625 C 15.4375 -5.179688 15.550781 -5.617188 15.625 -5.953125 C 15.695312 -6.285156 15.769531 -6.597656 15.84375 -6.890625 C 15.914062 -7.179688 15.960938 -7.410156 15.984375 -7.578125 C 15.078125 -6.347656 14.4375 -5.601562 14.0625 -5.34375 C 13.113281 -4.675781 12.007812 -4.367188 10.75 -4.421875 C 9.96875 -4.460938 9.515625 -4.640625 9.390625 -4.953125 C 9.160156 -5.617188 8.992188 -6.007812 8.890625 -6.125 C 8.753906 -6.3125 8.640625 -6.632812 8.546875 -7.09375 C 7.921875 -4.351562 7.3125 -2.414062 6.71875 -1.28125 C 6.488281 -0.832031 6.253906 -0.429688 6.015625 -0.078125 C 5.679688 0.710938 4.921875 1.257812 3.734375 1.5625 C 2.617188 1.875 1.550781 1.851562 0.53125 1.5 C -0.507812 1.164062 -1.003906 0.570312 -0.953125 -0.28125 C -0.910156 -1.132812 -0.738281 -2.207031 -0.4375 -3.5 C -0.144531 -4.800781 0.195312 -6.175781 0.59375 -7.625 C 1.8125 -12.207031 2.675781 -15.1875 3.1875 -16.5625 C 3.695312 -17.9375 4.128906 -19.015625 4.484375 -19.796875 C 5.335938 -21.628906 6.097656 -22.957031 6.765625 -23.78125 C 7.492188 -25.28125 8.710938 -26.1875 10.421875 -26.5 C 11.773438 -26.757812 12.960938 -26.59375 13.984375 -26 Z M 13.984375 -26 "/></g></g></g><g fill="#00c2cb" fill-opacity="1"><g transform="translate(86.409351, 294.777608)"><g><path d="M 8.046875 -4.484375 C 9.421875 -4.335938 10.445312 -4.265625 11.125 -4.265625 C 11.800781 -4.265625 12.828125 -4.363281 14.203125 -4.5625 C 14.628906 -4.414062 14.878906 -4.234375 14.953125 -4.015625 C 15.023438 -3.804688 15.046875 -3.585938 15.015625 -3.359375 C 14.992188 -3.140625 15.007812 -2.921875 15.0625 -2.703125 C 15.113281 -2.492188 15.335938 -2.316406 15.734375 -2.171875 C 15.953125 -2.097656 16.019531 -1.890625 15.9375 -1.546875 C 15.851562 -1.203125 15.65625 -0.828125 15.34375 -0.421875 C 14.5625 0.597656 13.632812 1.304688 12.5625 1.703125 C 10.851562 2.128906 9.515625 2.378906 8.546875 2.453125 C 6.929688 2.578125 5.175781 2.519531 3.28125 2.28125 C 1.1875 1.894531 0.175781 1.023438 0.25 -0.328125 C 0.25 -5.304688 1.34375 -10.3125 3.53125 -15.34375 C 4.238281 -16.988281 5.046875 -18.710938 5.953125 -20.515625 C 6.140625 -20.890625 6.25 -21.3125 6.28125 -21.78125 C 6.320312 -22.257812 6.351562 -22.722656 6.375 -23.171875 C 6.394531 -23.628906 6.460938 -24.035156 6.578125 -24.390625 C 6.703125 -24.742188 6.953125 -24.992188 7.328125 -25.140625 C 12.273438 -27.109375 16.179688 -27.867188 19.046875 -27.421875 C 20.046875 -27.398438 20.707031 -27.0625 21.03125 -26.40625 C 21.351562 -25.75 21.390625 -25.015625 21.140625 -24.203125 C 20.890625 -23.398438 20.398438 -22.640625 19.671875 -21.921875 C 18.953125 -21.210938 18.046875 -20.78125 16.953125 -20.625 C 15.546875 -20.21875 14.691406 -19.941406 14.390625 -19.796875 C 13.796875 -19.515625 13.367188 -19.132812 13.109375 -18.65625 C 12.773438 -18.132812 12.460938 -17.632812 12.171875 -17.15625 C 11.890625 -16.6875 11.691406 -16.175781 11.578125 -15.625 L 11.4375 -14.84375 C 11.882812 -14.632812 12.429688 -14.570312 13.078125 -14.65625 C 13.734375 -14.738281 14.335938 -14.820312 14.890625 -14.90625 C 15.453125 -14.988281 15.90625 -14.992188 16.25 -14.921875 C 16.59375 -14.847656 16.664062 -14.492188 16.46875 -13.859375 C 16.269531 -13.234375 15.898438 -12.53125 15.359375 -11.75 C 14.828125 -10.96875 14.078125 -10.398438 13.109375 -10.046875 C 12.484375 -9.921875 12.054688 -9.828125 11.828125 -9.765625 C 11.609375 -9.710938 11.441406 -9.675781 11.328125 -9.65625 C 11.160156 -9.625 10.6875 -9.585938 9.90625 -9.546875 C 8.78125 -7.640625 8.101562 -6.164062 7.875 -5.125 C 7.78125 -4.695312 7.835938 -4.484375 8.046875 -4.484375 Z M 8.046875 -4.484375 "/></g></g></g><g fill="#00c2cb" fill-opacity="1"><g transform="translate(105.050824, 294.777608)"><g><path d="M 18.265625 -7.625 C 17.316406 -6.90625 16.328125 -6.382812 15.296875 -6.0625 C 14.265625 -5.75 13.238281 -5.660156 12.21875 -5.796875 C 11.195312 -5.941406 10.316406 -6.382812 9.578125 -7.125 C 8.910156 -5.007812 8.457031 -2.921875 8.21875 -0.859375 C 8.125 -0.472656 7.960938 -0.128906 7.734375 0.171875 C 7.304688 1.429688 6.367188 2.273438 4.921875 2.703125 C 3.492188 3.109375 2.160156 3.039062 0.921875 2.5 C 0.359375 2.226562 -0.109375 1.84375 -0.484375 1.34375 C -0.867188 0.851562 -1.0625 0.25 -1.0625 -0.46875 C 0.570312 -6.132812 2.148438 -10.785156 3.671875 -14.421875 C 4.003906 -15.179688 4.269531 -15.796875 4.46875 -16.265625 C 4.664062 -16.742188 4.847656 -17.148438 5.015625 -17.484375 C 5.179688 -17.816406 5.328125 -18.109375 5.453125 -18.359375 C 5.585938 -18.609375 5.753906 -18.882812 5.953125 -19.1875 C 6.378906 -19.90625 6.867188 -20.742188 7.421875 -21.703125 C 7.984375 -22.660156 8.457031 -23.378906 8.84375 -23.859375 C 9.238281 -24.335938 9.65625 -24.75 10.09375 -25.09375 C 10.53125 -25.4375 11.015625 -25.757812 11.546875 -26.0625 C 12.085938 -26.375 12.757812 -26.78125 13.5625 -27.28125 C 14.375 -27.78125 15.234375 -28.082031 16.140625 -28.1875 C 17.054688 -28.289062 17.929688 -28.210938 18.765625 -27.953125 C 20.523438 -27.410156 21.816406 -26.1875 22.640625 -24.28125 C 23.359375 -22.53125 23.476562 -20.171875 23 -17.203125 C 22.269531 -12.660156 20.691406 -9.46875 18.265625 -7.625 Z M 10.828125 -10.796875 C 12.773438 -11.222656 14.128906 -12.488281 14.890625 -14.59375 C 15.523438 -16.375 15.65625 -18.394531 15.28125 -20.65625 C 14.726562 -19.726562 14.234375 -18.765625 13.796875 -17.765625 C 13.359375 -16.773438 12.960938 -15.882812 12.609375 -15.09375 C 11.828125 -13.34375 11.234375 -11.910156 10.828125 -10.796875 Z M 10.828125 -10.796875 "/></g></g></g><g fill="#00c2cb" fill-opacity="1"><g transform="translate(126.609507, 294.777608)"><g><path d="M 12.359375 1.703125 C 11.859375 1.847656 11.378906 1.925781 10.921875 1.9375 C 10.472656 1.945312 10.015625 1.960938 9.546875 1.984375 C 9.085938 2.015625 8.453125 2.03125 7.640625 2.03125 C 6.835938 2.03125 5.628906 2.003906 4.015625 1.953125 C 3.640625 1.984375 3.257812 2 2.875 2 C 2.5 2 2.144531 1.925781 1.8125 1.78125 C 1.070312 1.46875 0.570312 0.753906 0.3125 -0.359375 C 0.195312 -0.878906 0.0625 -1.242188 -0.09375 -1.453125 C -0.25 -1.671875 -0.375 -1.875 -0.46875 -2.0625 C -0.707031 -2.445312 -0.6875 -3.078125 -0.40625 -3.953125 C -0.132812 -4.828125 0.210938 -5.910156 0.640625 -7.203125 C 1.066406 -8.503906 1.550781 -9.878906 2.09375 -11.328125 C 3.375 -14.765625 4.523438 -17.492188 5.546875 -19.515625 C 5.953125 -20.410156 6.300781 -21.191406 6.59375 -21.859375 C 6.894531 -22.523438 7.164062 -23.101562 7.40625 -23.59375 C 7.644531 -24.082031 7.765625 -24.335938 7.765625 -24.359375 C 7.992188 -25.253906 8.90625 -26.015625 10.5 -26.640625 C 12.039062 -27.273438 13.441406 -27.441406 14.703125 -27.140625 C 16.097656 -26.773438 16.710938 -25.847656 16.546875 -24.359375 C 16.222656 -22.890625 15.734375 -21.414062 15.078125 -19.9375 C 14.421875 -18.46875 13.675781 -16.925781 12.84375 -15.3125 C 12.019531 -13.695312 11.117188 -11.988281 10.140625 -10.1875 C 9.171875 -8.382812 8.210938 -6.425781 7.265625 -4.3125 C 7.234375 -4.21875 7.28125 -4.132812 7.40625 -4.0625 C 7.707031 -4.082031 8.132812 -4.175781 8.6875 -4.34375 C 9.25 -4.507812 9.832031 -4.65625 10.4375 -4.78125 C 11.050781 -4.914062 11.65625 -4.984375 12.25 -4.984375 C 12.84375 -4.984375 13.335938 -4.828125 13.734375 -4.515625 C 13.710938 -4.085938 13.820312 -3.75 14.0625 -3.5 C 14.300781 -3.257812 14.539062 -3.019531 14.78125 -2.78125 C 15.363281 -2.164062 15.410156 -1.347656 14.921875 -0.328125 C 14.441406 0.671875 13.585938 1.347656 12.359375 1.703125 Z M 12.359375 1.703125 "/></g></g></g><g fill="#00c2cb" fill-opacity="1"><g transform="translate(143.223214, 294.777608)"><g><path d="M 19.6875 -24.140625 C 20.5 -23.710938 21.007812 -23.082031 21.21875 -22.25 C 20.75 -19.59375 20.320312 -16.953125 19.9375 -14.328125 C 19.5625 -11.703125 19.191406 -9.503906 18.828125 -7.734375 C 18.472656 -5.972656 18.226562 -4.648438 18.09375 -3.765625 C 17.96875 -2.890625 17.820312 -2.015625 17.65625 -1.140625 L 17.453125 -0.390625 C 17.398438 -0.128906 17.347656 0.109375 17.296875 0.328125 C 17.253906 0.554688 17.207031 0.800781 17.15625 1.0625 C 16.5 1.820312 15.597656 2.203125 14.453125 2.203125 C 13.242188 2.203125 12.285156 1.894531 11.578125 1.28125 C 11.148438 0.945312 11.078125 0.25 11.359375 -0.8125 C 11.472656 -1.238281 11.546875 -1.789062 11.578125 -2.46875 C 11.617188 -3.144531 11.664062 -3.710938 11.71875 -4.171875 L 11.71875 -4.234375 C 11 -3.972656 10.351562 -3.632812 9.78125 -3.21875 C 9.21875 -2.800781 8.863281 -2.539062 8.71875 -2.4375 C 8.582031 -2.332031 8.394531 -2.25 8.15625 -2.1875 C 7.914062 -2.125 7.703125 -2.082031 7.515625 -2.0625 C 7.066406 -2.039062 6.757812 -1.972656 6.59375 -1.859375 C 5.207031 0.617188 3.972656 2 2.890625 2.28125 C 2.203125 2.488281 1.507812 2.539062 0.8125 2.4375 C 0.125 2.332031 -0.414062 1.921875 -0.8125 1.203125 C -1.570312 0.492188 -1.382812 -1.445312 -0.25 -4.625 C 0.363281 -6.3125 1.242188 -8.335938 2.390625 -10.703125 C 3.546875 -13.066406 4.660156 -15.125 5.734375 -16.875 C 8.035156 -20.65625 10.5625 -23.835938 13.3125 -26.421875 C 13.769531 -26.609375 14.257812 -26.828125 14.78125 -27.078125 C 15.300781 -27.328125 15.816406 -27.460938 16.328125 -27.484375 C 16.835938 -27.515625 17.363281 -27.457031 17.90625 -27.3125 C 18.457031 -27.164062 18.921875 -26.953125 19.296875 -26.671875 C 20.179688 -26.003906 20.3125 -25.160156 19.6875 -24.140625 Z M 12.078125 -14.78125 C 11.578125 -13.351562 11.078125 -12.039062 10.578125 -10.84375 C 10.078125 -9.644531 9.648438 -8.59375 9.296875 -7.6875 L 12.109375 -7.796875 C 12.296875 -9.316406 12.507812 -10.820312 12.75 -12.3125 C 12.988281 -13.8125 13.210938 -15.3125 13.421875 -16.8125 Z M 11.109375 -7.65625 C 11.441406 -7.65625 11.773438 -7.679688 12.109375 -7.734375 L 12.109375 -7.765625 C 11.796875 -7.742188 11.507812 -7.71875 11.25 -7.6875 C 10.988281 -7.664062 10.941406 -7.65625 11.109375 -7.65625 Z M 11.109375 -7.65625 "/></g></g></g><g fill="#00c2cb" fill-opacity="1"><g transform="translate(163.287733, 294.777608)"><g><path d="M 4.265625 -13.5 C 3.867188 -16.9375 3.707031 -19.738281 3.78125 -21.90625 C 3.726562 -22.925781 4.140625 -23.894531 5.015625 -24.8125 C 5.847656 -25.695312 6.71875 -26.1875 7.625 -26.28125 C 8.613281 -26.351562 9.253906 -25.796875 9.546875 -24.609375 C 9.734375 -23.941406 9.96875 -23.164062 10.25 -22.28125 C 10.539062 -21.40625 10.816406 -20.484375 11.078125 -19.515625 C 11.335938 -19.867188 11.75 -20.492188 12.3125 -21.390625 C 12.882812 -22.296875 13.421875 -23.109375 13.921875 -23.828125 C 15.128906 -25.554688 16.195312 -26.765625 17.125 -27.453125 C 18.03125 -27.804688 18.804688 -27.90625 19.453125 -27.75 C 20.109375 -27.601562 20.582031 -27.363281 20.875 -27.03125 C 21.175781 -26.695312 21.289062 -26.207031 21.21875 -25.5625 C 21.175781 -24.070312 20.039062 -21.722656 17.8125 -18.515625 C 17.28125 -17.773438 16.75 -16.921875 16.21875 -15.953125 C 15.6875 -14.984375 15.066406 -13.894531 14.359375 -12.6875 C 13.660156 -11.488281 12.992188 -10.296875 12.359375 -9.109375 C 10.890625 -6.429688 9.738281 -3.878906 8.90625 -1.453125 C 8.925781 -1.503906 9.019531 -1.453125 9.1875 -1.296875 C 9.351562 -1.140625 9.507812 -0.921875 9.65625 -0.640625 C 10.03125 0.0664062 9.992188 0.660156 9.546875 1.140625 C 8.398438 2.328125 6.988281 2.992188 5.3125 3.140625 C 3.757812 3.253906 2.425781 2.96875 1.3125 2.28125 C 0.195312 1.632812 -0.164062 0.835938 0.21875 -0.109375 L 0.109375 -0.109375 C 0.628906 -1.460938 1.222656 -2.738281 1.890625 -3.9375 C 2.554688 -5.132812 3.242188 -6.375 3.953125 -7.65625 L 5.5625 -10.5 C 5.15625 -10.40625 4.820312 -10.691406 4.5625 -11.359375 C 4.363281 -11.898438 4.265625 -12.613281 4.265625 -13.5 Z M 4.265625 -13.5 "/></g></g></g><g fill="#00c2cb" fill-opacity="1"><g transform="translate(180.755217, 294.777608)"><g/></g></g><g fill="#00c2cb" fill-opacity="1"><g transform="translate(191.854716, 294.777608)"><g><path d="M 22.546875 0.109375 C 23.304688 -0.128906 23.816406 -0.179688 24.078125 -0.046875 C 24.335938 0.078125 24.414062 0.289062 24.3125 0.59375 C 24.21875 0.90625 23.984375 1.273438 23.609375 1.703125 C 23.234375 2.128906 22.769531 2.523438 22.21875 2.890625 C 20.914062 3.765625 19.765625 4.09375 18.765625 3.875 C 18.128906 3.757812 17.546875 3.347656 17.015625 2.640625 C 16.828125 2.347656 16.640625 2.0625 16.453125 1.78125 C 16.265625 1.5 16.0625 1.257812 15.84375 1.0625 C 13.925781 2.445312 11.863281 3.316406 9.65625 3.671875 C 8.9375 3.785156 8.054688 3.765625 7.015625 3.609375 C 5.972656 3.460938 4.929688 3.15625 3.890625 2.6875 C 2.859375 2.226562 2.0625 1.601562 1.5 0.8125 C 0.351562 -0.75 0.175781 -3.109375 0.96875 -6.265625 C 1.820312 -8.472656 3.578125 -10.65625 6.234375 -12.8125 C 7.347656 -13.738281 8.109375 -14.347656 8.515625 -14.640625 C 8.035156 -17.535156 8.378906 -20.191406 9.546875 -22.609375 C 10.535156 -24.703125 11.890625 -26.234375 13.609375 -27.203125 C 14.765625 -27.984375 16.210938 -28.410156 17.953125 -28.484375 C 21.128906 -28.628906 23.070312 -27.585938 23.78125 -25.359375 C 24.207031 -23.929688 23.945312 -22.253906 23 -20.328125 C 22.238281 -18.859375 21.019531 -17.304688 19.34375 -15.671875 C 18.507812 -14.890625 17.554688 -14.128906 16.484375 -13.390625 C 16.535156 -12.484375 16.726562 -11.601562 17.0625 -10.75 C 17.394531 -9.894531 17.671875 -9.210938 17.890625 -8.703125 C 18.117188 -8.191406 18.328125 -7.6875 18.515625 -7.1875 C 18.585938 -7.238281 18.671875 -7.34375 18.765625 -7.5 C 18.859375 -7.65625 18.960938 -7.8125 19.078125 -7.96875 C 19.203125 -8.132812 19.320312 -8.300781 19.4375 -8.46875 C 19.5625 -8.632812 19.65625 -8.75 19.71875 -8.8125 C 19.789062 -8.875 19.890625 -8.953125 20.015625 -9.046875 C 20.148438 -9.140625 20.316406 -9.234375 20.515625 -9.328125 C 20.984375 -9.515625 21.382812 -9.515625 21.71875 -9.328125 C 21.738281 -9.347656 21.835938 -9.390625 22.015625 -9.453125 C 22.203125 -9.515625 22.296875 -9.566406 22.296875 -9.609375 C 22.335938 -9.828125 22.519531 -9.984375 22.84375 -10.078125 C 23.164062 -10.171875 23.503906 -10.207031 23.859375 -10.1875 C 24.804688 -10.113281 25.28125 -9.828125 25.28125 -9.328125 C 25.332031 -8.898438 25.109375 -8.304688 24.609375 -7.546875 C 23.753906 -5.359375 22.707031 -3.53125 21.46875 -2.0625 C 21.445312 -2.019531 21.421875 -1.988281 21.390625 -1.96875 C 21.367188 -1.957031 21.347656 -1.941406 21.328125 -1.921875 C 21.660156 -1.492188 21.890625 -1.144531 22.015625 -0.875 C 22.148438 -0.601562 22.328125 -0.273438 22.546875 0.109375 Z M 10.15625 -7.765625 C 9.457031 -6.984375 8.976562 -6.320312 8.71875 -5.78125 C 8.457031 -5.25 8.539062 -4.6875 8.96875 -4.09375 C 9.300781 -3.644531 9.691406 -3.390625 10.140625 -3.328125 C 10.597656 -3.265625 11.003906 -3.242188 11.359375 -3.265625 C 11.710938 -3.296875 12.101562 -3.320312 12.53125 -3.34375 C 12.414062 -3.582031 12.273438 -3.800781 12.109375 -4 C 11.941406 -4.207031 11.75 -4.460938 11.53125 -4.765625 C 11.007812 -5.578125 10.550781 -6.578125 10.15625 -7.765625 Z M 18.125 -22.71875 C 17.976562 -23.289062 17.550781 -23.363281 16.84375 -22.9375 C 16.195312 -22.570312 15.613281 -21.953125 15.09375 -21.078125 C 14.550781 -20.179688 14.4375 -19.410156 14.75 -18.765625 C 15.03125 -18.984375 15.265625 -19.179688 15.453125 -19.359375 C 15.640625 -19.535156 15.890625 -19.695312 16.203125 -19.84375 C 16.515625 -20 16.8125 -20.1875 17.09375 -20.40625 C 17.726562 -20.875 18.082031 -21.644531 18.15625 -22.71875 Z M 16.484375 -19.125 L 15.140625 -19.015625 Z M 15.0625 -18.9375 L 14.953125 -18.84375 Z M 15.0625 -18.9375 "/></g></g></g><g fill="#00c2cb" fill-opacity="1"><g transform="translate(217.184386, 294.777608)"><g/></g></g><g fill="#00c2cb" fill-opacity="1"><g transform="translate(228.283885, 294.777608)"><g><path d="M 6.234375 0.109375 C 6.015625 1.054688 5.28125 1.640625 4.03125 1.859375 C 2.863281 2.066406 1.757812 1.929688 0.71875 1.453125 C -0.445312 0.960938 -0.957031 0.265625 -0.8125 -0.640625 C -0.957031 -2.015625 -0.234375 -5.003906 1.359375 -9.609375 C 3.734375 -16.523438 6.101562 -21.460938 8.46875 -24.421875 C 9.09375 -25.179688 9.625 -25.675781 10.0625 -25.90625 C 10.5 -26.132812 11 -26.34375 11.5625 -26.53125 C 12.132812 -26.71875 12.734375 -26.894531 13.359375 -27.0625 C 14.585938 -27.394531 15.753906 -27.625 16.859375 -27.75 C 17.960938 -27.882812 18.953125 -27.753906 19.828125 -27.359375 C 20.710938 -26.972656 21.394531 -26.398438 21.875 -25.640625 C 22.363281 -24.878906 22.664062 -23.984375 22.78125 -22.953125 C 22.90625 -21.921875 22.867188 -20.835938 22.671875 -19.703125 C 22.484375 -18.578125 22.140625 -17.4375 21.640625 -16.28125 C 21.148438 -15.132812 20.523438 -14.0625 19.765625 -13.0625 C 18.097656 -10.882812 16.148438 -9.472656 13.921875 -8.828125 L 14.28125 -8.21875 C 14.59375 -7.75 14.96875 -7.226562 15.40625 -6.65625 C 15.84375 -6.082031 16.28125 -5.5 16.71875 -4.90625 C 17.15625 -4.320312 17.550781 -3.734375 17.90625 -3.140625 C 18.269531 -2.546875 18.53125 -1.984375 18.6875 -1.453125 C 19.070312 -0.296875 18.78125 0.539062 17.8125 1.0625 C 17.019531 1.539062 16.398438 1.660156 15.953125 1.421875 C 15.765625 1.304688 15.570312 1.160156 15.375 0.984375 C 15.1875 0.804688 14.925781 0.65625 14.59375 0.53125 C 13.195312 0.9375 12.128906 0.582031 11.390625 -0.53125 C 10.941406 -1.25 10.597656 -1.90625 10.359375 -2.5 C 10.117188 -3.09375 9.914062 -3.585938 9.75 -3.984375 C 9.320312 -4.867188 8.835938 -5.628906 8.296875 -6.265625 C 8.035156 -5.628906 7.738281 -4.8125 7.40625 -3.8125 C 7 -2.550781 6.546875 -1.242188 6.046875 0.109375 Z M 13.421875 -20.625 C 12.972656 -19.601562 12.664062 -18.890625 12.5 -18.484375 C 12.164062 -17.671875 11.796875 -16.78125 11.390625 -15.8125 C 11.316406 -15.289062 11.257812 -14.921875 11.21875 -14.703125 L 11.71875 -15.203125 L 12.328125 -15.484375 C 12.753906 -15.722656 13.144531 -15.9375 13.5 -16.125 C 13.851562 -16.320312 14.171875 -16.5625 14.453125 -16.84375 C 15.003906 -17.382812 15.476562 -18.273438 15.875 -19.515625 C 15.875 -19.753906 15.914062 -19.988281 16 -20.21875 C 16.082031 -20.457031 16.140625 -20.695312 16.171875 -20.9375 C 16.265625 -21.457031 16.050781 -21.828125 15.53125 -22.046875 C 15.050781 -22.085938 14.457031 -21.691406 13.75 -20.859375 C 13.601562 -20.703125 13.492188 -20.625 13.421875 -20.625 Z M 13.421875 -20.625 "/></g></g></g><g fill="#00c2cb" fill-opacity="1"><g transform="translate(248.988755, 294.777608)"><g><path d="M 8.046875 -4.484375 C 9.421875 -4.335938 10.445312 -4.265625 11.125 -4.265625 C 11.800781 -4.265625 12.828125 -4.363281 14.203125 -4.5625 C 14.628906 -4.414062 14.878906 -4.234375 14.953125 -4.015625 C 15.023438 -3.804688 15.046875 -3.585938 15.015625 -3.359375 C 14.992188 -3.140625 15.007812 -2.921875 15.0625 -2.703125 C 15.113281 -2.492188 15.335938 -2.316406 15.734375 -2.171875 C 15.953125 -2.097656 16.019531 -1.890625 15.9375 -1.546875 C 15.851562 -1.203125 15.65625 -0.828125 15.34375 -0.421875 C 14.5625 0.597656 13.632812 1.304688 12.5625 1.703125 C 10.851562 2.128906 9.515625 2.378906 8.546875 2.453125 C 6.929688 2.578125 5.175781 2.519531 3.28125 2.28125 C 1.1875 1.894531 0.175781 1.023438 0.25 -0.328125 C 0.25 -5.304688 1.34375 -10.3125 3.53125 -15.34375 C 4.238281 -16.988281 5.046875 -18.710938 5.953125 -20.515625 C 6.140625 -20.890625 6.25 -21.3125 6.28125 -21.78125 C 6.320312 -22.257812 6.351562 -22.722656 6.375 -23.171875 C 6.394531 -23.628906 6.460938 -24.035156 6.578125 -24.390625 C 6.703125 -24.742188 6.953125 -24.992188 7.328125 -25.140625 C 12.273438 -27.109375 16.179688 -27.867188 19.046875 -27.421875 C 20.046875 -27.398438 20.707031 -27.0625 21.03125 -26.40625 C 21.351562 -25.75 21.390625 -25.015625 21.140625 -24.203125 C 20.890625 -23.398438 20.398438 -22.640625 19.671875 -21.921875 C 18.953125 -21.210938 18.046875 -20.78125 16.953125 -20.625 C 15.546875 -20.21875 14.691406 -19.941406 14.390625 -19.796875 C 13.796875 -19.515625 13.367188 -19.132812 13.109375 -18.65625 C 12.773438 -18.132812 12.460938 -17.632812 12.171875 -17.15625 C 11.890625 -16.6875 11.691406 -16.175781 11.578125 -15.625 L 11.4375 -14.84375 C 11.882812 -14.632812 12.429688 -14.570312 13.078125 -14.65625 C 13.734375 -14.738281 14.335938 -14.820312 14.890625 -14.90625 C 15.453125 -14.988281 15.90625 -14.992188 16.25 -14.921875 C 16.59375 -14.847656 16.664062 -14.492188 16.46875 -13.859375 C 16.269531 -13.234375 15.898438 -12.53125 15.359375 -11.75 C 14.828125 -10.96875 14.078125 -10.398438 13.109375 -10.046875 C 12.484375 -9.921875 12.054688 -9.828125 11.828125 -9.765625 C 11.609375 -9.710938 11.441406 -9.675781 11.328125 -9.65625 C 11.160156 -9.625 10.6875 -9.585938 9.90625 -9.546875 C 8.78125 -7.640625 8.101562 -6.164062 7.875 -5.125 C 7.78125 -4.695312 7.835938 -4.484375 8.046875 -4.484375 Z M 8.046875 -4.484375 "/></g></g></g><g fill="#00c2cb" fill-opacity="1"><g transform="translate(267.630228, 294.777608)"><g><path d="M 2.8125 -1.171875 L 2.5625 -24.171875 C 2.5625 -24.742188 2.789062 -25.238281 3.25 -25.65625 C 3.71875 -26.070312 4.25 -26.363281 4.84375 -26.53125 C 5.4375 -26.695312 5.992188 -26.71875 6.515625 -26.59375 C 7.035156 -26.476562 7.367188 -26.171875 7.515625 -25.671875 C 7.960938 -24.773438 8.269531 -23.53125 8.4375 -21.9375 C 8.75 -18.96875 8.90625 -16.40625 8.90625 -14.25 C 9.144531 -13.863281 9.441406 -13.679688 9.796875 -13.703125 C 10.816406 -16.203125 11.941406 -18.601562 13.171875 -20.90625 C 14.410156 -23.207031 15.207031 -24.679688 15.5625 -25.328125 C 15.914062 -25.984375 16.34375 -26.441406 16.84375 -26.703125 C 17.34375 -26.960938 17.878906 -27.128906 18.453125 -27.203125 C 19.679688 -27.347656 20.84375 -27.132812 21.9375 -26.5625 C 22.769531 -26.28125 23.253906 -25.796875 23.390625 -25.109375 C 23.941406 -24.015625 23.578125 -22.753906 22.296875 -21.328125 C 20.796875 -18.953125 19.285156 -16.328125 17.765625 -13.453125 C 14.867188 -7.921875 13.03125 -4.515625 12.25 -3.234375 C 11.46875 -1.953125 10.894531 -1.046875 10.53125 -0.515625 C 10.175781 0.015625 9.773438 0.457031 9.328125 0.8125 C 8.523438 1.457031 7.550781 1.722656 6.40625 1.609375 C 4.414062 1.535156 3.253906 0.90625 2.921875 -0.28125 C 2.847656 -0.613281 2.8125 -0.910156 2.8125 -1.171875 Z M 2.8125 -1.171875 "/></g></g></g><g fill="#00c2cb" fill-opacity="1"><g transform="translate(285.951526, 294.777608)"><g><path d="M 15.0625 -24.078125 C 14.226562 -21.484375 13.460938 -19.140625 12.765625 -17.046875 C 12.066406 -14.960938 11.425781 -13.039062 10.84375 -11.28125 C 10.257812 -9.53125 9.71875 -7.910156 9.21875 -6.421875 C 8.71875 -4.941406 8.253906 -3.523438 7.828125 -2.171875 C 7.585938 -0.609375 6.816406 0.492188 5.515625 1.140625 C 4.753906 1.492188 3.847656 1.671875 2.796875 1.671875 C 1.753906 1.671875 0.972656 1.554688 0.453125 1.328125 C -0.0664062 1.109375 -0.398438 0.785156 -0.546875 0.359375 C -0.703125 -0.0664062 -0.703125 -0.582031 -0.546875 -1.1875 C -0.398438 -1.789062 -0.140625 -2.617188 0.234375 -3.671875 C 0.617188 -4.734375 1.101562 -6.164062 1.6875 -7.96875 C 2.269531 -9.78125 2.878906 -11.609375 3.515625 -13.453125 C 5.109375 -18.085938 6.367188 -21.296875 7.296875 -23.078125 C 7.648438 -23.742188 8.003906 -24.1875 8.359375 -24.40625 C 8.710938 -24.632812 9.054688 -24.800781 9.390625 -24.90625 C 9.722656 -25.007812 10.03125 -25.132812 10.3125 -25.28125 C 10.601562 -25.425781 10.859375 -25.78125 11.078125 -26.34375 C 11.304688 -26.914062 11.722656 -27.304688 12.328125 -27.515625 C 12.941406 -27.734375 13.515625 -27.753906 14.046875 -27.578125 C 14.578125 -27.398438 14.976562 -27.019531 15.25 -26.4375 C 15.519531 -25.851562 15.457031 -25.066406 15.0625 -24.078125 Z M 15.0625 -24.078125 "/></g></g></g><g fill="#00c2cb" fill-opacity="1"><g transform="translate(299.007673, 294.777608)"><g><path d="M 8.046875 -4.484375 C 9.421875 -4.335938 10.445312 -4.265625 11.125 -4.265625 C 11.800781 -4.265625 12.828125 -4.363281 14.203125 -4.5625 C 14.628906 -4.414062 14.878906 -4.234375 14.953125 -4.015625 C 15.023438 -3.804688 15.046875 -3.585938 15.015625 -3.359375 C 14.992188 -3.140625 15.007812 -2.921875 15.0625 -2.703125 C 15.113281 -2.492188 15.335938 -2.316406 15.734375 -2.171875 C 15.953125 -2.097656 16.019531 -1.890625 15.9375 -1.546875 C 15.851562 -1.203125 15.65625 -0.828125 15.34375 -0.421875 C 14.5625 0.597656 13.632812 1.304688 12.5625 1.703125 C 10.851562 2.128906 9.515625 2.378906 8.546875 2.453125 C 6.929688 2.578125 5.175781 2.519531 3.28125 2.28125 C 1.1875 1.894531 0.175781 1.023438 0.25 -0.328125 C 0.25 -5.304688 1.34375 -10.3125 3.53125 -15.34375 C 4.238281 -16.988281 5.046875 -18.710938 5.953125 -20.515625 C 6.140625 -20.890625 6.25 -21.3125 6.28125 -21.78125 C 6.320312 -22.257812 6.351562 -22.722656 6.375 -23.171875 C 6.394531 -23.628906 6.460938 -24.035156 6.578125 -24.390625 C 6.703125 -24.742188 6.953125 -24.992188 7.328125 -25.140625 C 12.273438 -27.109375 16.179688 -27.867188 19.046875 -27.421875 C 20.046875 -27.398438 20.707031 -27.0625 21.03125 -26.40625 C 21.351562 -25.75 21.390625 -25.015625 21.140625 -24.203125 C 20.890625 -23.398438 20.398438 -22.640625 19.671875 -21.921875 C 18.953125 -21.210938 18.046875 -20.78125 16.953125 -20.625 C 15.546875 -20.21875 14.691406 -19.941406 14.390625 -19.796875 C 13.796875 -19.515625 13.367188 -19.132812 13.109375 -18.65625 C 12.773438 -18.132812 12.460938 -17.632812 12.171875 -17.15625 C 11.890625 -16.6875 11.691406 -16.175781 11.578125 -15.625 L 11.4375 -14.84375 C 11.882812 -14.632812 12.429688 -14.570312 13.078125 -14.65625 C 13.734375 -14.738281 14.335938 -14.820312 14.890625 -14.90625 C 15.453125 -14.988281 15.90625 -14.992188 16.25 -14.921875 C 16.59375 -14.847656 16.664062 -14.492188 16.46875 -13.859375 C 16.269531 -13.234375 15.898438 -12.53125 15.359375 -11.75 C 14.828125 -10.96875 14.078125 -10.398438 13.109375 -10.046875 C 12.484375 -9.921875 12.054688 -9.828125 11.828125 -9.765625 C 11.609375 -9.710938 11.441406 -9.675781 11.328125 -9.65625 C 11.160156 -9.625 10.6875 -9.585938 9.90625 -9.546875 C 8.78125 -7.640625 8.101562 -6.164062 7.875 -5.125 C 7.78125 -4.695312 7.835938 -4.484375 8.046875 -4.484375 Z M 8.046875 -4.484375 "/></g></g></g><g fill="#00c2cb" fill-opacity="1"><g transform="translate(317.649146, 294.777608)"><g><path d="M 17.375 -15.03125 C 19.800781 -22.3125 21.414062 -25.953125 22.21875 -25.953125 C 22.3125 -25.953125 22.421875 -25.941406 22.546875 -25.921875 C 22.921875 -25.898438 23.347656 -26.054688 23.828125 -26.390625 C 24.441406 -26.910156 25.15625 -27.3125 25.96875 -27.59375 C 26.789062 -27.882812 27.59375 -27.992188 28.375 -27.921875 C 30.207031 -27.753906 31.359375 -26.789062 31.828125 -25.03125 L 31.828125 -24.921875 C 31.710938 -24.585938 31.597656 -24.316406 31.484375 -24.109375 L 31.625 -24.109375 C 31.03125 -23.367188 30.457031 -22.410156 29.90625 -21.234375 C 29.363281 -20.066406 28.945312 -19.15625 28.65625 -18.5 C 28.375 -17.84375 27.972656 -17.015625 27.453125 -16.015625 C 26.929688 -15.023438 26.332031 -13.804688 25.65625 -12.359375 C 24.976562 -10.910156 24.269531 -9.472656 23.53125 -8.046875 C 21.78125 -4.628906 20.035156 -1.945312 18.296875 0 C 17.421875 1.070312 16.238281 1.59375 14.75 1.5625 C 14.101562 1.539062 13.484375 1.375 12.890625 1.0625 C 12.296875 0.757812 11.832031 0.285156 11.5 -0.359375 L 10.75 -2.59375 C 10.445312 -2.332031 10.09375 -2 9.6875 -1.59375 C 9.28125 -1.195312 8.851562 -0.785156 8.40625 -0.359375 C 7.363281 0.640625 6.554688 1.160156 5.984375 1.203125 C 5.410156 1.253906 4.921875 1.257812 4.515625 1.21875 C 4.117188 1.1875 3.742188 1.101562 3.390625 0.96875 C 2.578125 0.65625 2.050781 0.0625 1.8125 -0.8125 C 1.40625 -4.875 1.609375 -10.0625 2.421875 -16.375 C 2.628906 -17.914062 2.816406 -19.4375 2.984375 -20.9375 C 3.390625 -23.050781 4.148438 -24.570312 5.265625 -25.5 C 6.210938 -26.300781 7.140625 -26.535156 8.046875 -26.203125 C 8.453125 -26.066406 8.757812 -25.832031 8.96875 -25.5 C 9.1875 -25.164062 9.257812 -24.757812 9.1875 -24.28125 C 9.238281 -22.832031 9.226562 -21.753906 9.15625 -21.046875 C 9.0625 -19.835938 9.023438 -18.945312 9.046875 -18.375 C 9.066406 -17.800781 9.054688 -17.332031 9.015625 -16.96875 C 8.984375 -16.601562 8.960938 -16.257812 8.953125 -15.9375 C 8.941406 -15.613281 8.953125 -15.347656 8.984375 -15.140625 C 9.023438 -14.941406 9.117188 -14.90625 9.265625 -15.03125 C 9.804688 -16.1875 10.265625 -17.023438 10.640625 -17.546875 C 11.023438 -18.078125 11.429688 -18.625 11.859375 -19.1875 C 12.523438 -19.78125 13.109375 -20.007812 13.609375 -19.875 C 13.867188 -19.820312 14.140625 -19.726562 14.421875 -19.59375 C 14.703125 -19.46875 15.082031 -19.359375 15.5625 -19.265625 C 15.875 -19.003906 16.078125 -18.71875 16.171875 -18.40625 C 16.242188 -18.332031 16.3125 -18.265625 16.375 -18.203125 C 16.445312 -18.148438 16.5 -18.082031 16.53125 -18 C 16.570312 -17.914062 16.632812 -17.726562 16.71875 -17.4375 C 16.800781 -17.15625 16.890625 -16.851562 16.984375 -16.53125 C 17.078125 -16.21875 17.160156 -15.910156 17.234375 -15.609375 C 17.304688 -15.316406 17.351562 -15.125 17.375 -15.03125 Z M 18.234375 -0.109375 C 18.234375 -0.0546875 18.238281 -0.046875 18.25 -0.078125 C 18.257812 -0.117188 18.265625 -0.164062 18.265625 -0.21875 Z M 18.234375 -0.109375 "/></g></g></g><g fill="#00c2cb" fill-opacity="1"><g transform="translate(345.14889, 294.777608)"><g><path d="M 5.90625 2.0625 C 4.695312 2.113281 3.585938 1.96875 2.578125 1.625 C 1.566406 1.28125 0.75 0.8125 0.125 0.21875 C -0.5 -0.375 -0.894531 -1.066406 -1.0625 -1.859375 C -1.226562 -2.660156 -1.085938 -3.476562 -0.640625 -4.3125 C -0.0234375 -5.300781 1.207031 -5.597656 3.0625 -5.203125 C 4.457031 -4.910156 5.421875 -4.753906 5.953125 -4.734375 C 6.492188 -4.710938 6.953125 -4.785156 7.328125 -4.953125 C 9.066406 -5.515625 10.039062 -6.128906 10.25 -6.796875 C 10.394531 -7.296875 10.085938 -7.878906 9.328125 -8.546875 C 9.015625 -8.828125 8.671875 -9.109375 8.296875 -9.390625 C 7.921875 -9.679688 7.597656 -9.96875 7.328125 -10.25 C 6.148438 -11.132812 5.222656 -12.148438 4.546875 -13.296875 C 3.867188 -14.453125 3.585938 -15.707031 3.703125 -17.0625 C 3.816406 -18.414062 4.039062 -19.535156 4.375 -20.421875 C 4.707031 -21.304688 5.125 -22.097656 5.625 -22.796875 C 6.5 -24.003906 7.640625 -24.988281 9.046875 -25.75 C 10.660156 -26.570312 11.953125 -27.101562 12.921875 -27.34375 C 14.847656 -27.769531 16.796875 -27.804688 18.765625 -27.453125 C 19.429688 -27.335938 20 -27.113281 20.46875 -26.78125 C 20.945312 -26.445312 21.425781 -26.101562 21.90625 -25.75 C 22.726562 -24.914062 22.925781 -24.070312 22.5 -23.21875 C 22.332031 -22.832031 22.070312 -22.519531 21.71875 -22.28125 C 21.363281 -22.050781 20.984375 -21.925781 20.578125 -21.90625 C 20.628906 -21.257812 20.507812 -20.78125 20.21875 -20.46875 C 19.675781 -19.925781 18.726562 -19.570312 17.375 -19.40625 C 15.425781 -19.550781 14.109375 -19.445312 13.421875 -19.09375 C 12.617188 -18.664062 12.320312 -17.738281 12.53125 -16.3125 C 12.582031 -16 12.78125 -15.675781 13.125 -15.34375 C 13.46875 -15.007812 13.867188 -14.648438 14.328125 -14.265625 C 14.796875 -13.890625 15.285156 -13.460938 15.796875 -12.984375 C 16.304688 -12.515625 16.75 -11.972656 17.125 -11.359375 C 18.457031 -9.171875 18.351562 -6.617188 16.8125 -3.703125 C 15.664062 -1.515625 13.71875 0.117188 10.96875 1.203125 C 9.539062 1.773438 7.851562 2.0625 5.90625 2.0625 Z M 5.90625 2.0625 "/></g></g></g></svg>